<svg width="19" height="12" viewBox="0 0 19 12" fill="none" xmlns="http://www.w3.org/2000/svg">
<path d="M18 5.87868C18 6.70711 17.3284 7.37868 16.5 7.37868L1.5 7.37868C0.671572 7.37868 -7.24234e-08 6.70711 0 5.87868C7.24234e-08 5.05025 0.671573 4.37868 1.5 4.37868L16.5 4.37868C17.3284 4.37868 18 5.05025 18 5.87868Z" fill="#606060"/>
<path d="M11.3032 0.43934C11.889 -0.146447 12.8387 -0.146447 13.4245 0.43934L17.6672 4.68198C18.2529 5.26777 18.2529 6.21751 17.6672 6.8033C17.0814 7.38909 16.1316 7.38909 15.5458 6.8033L11.3032 2.56066C10.7174 1.97487 10.7174 1.02513 11.3032 0.43934Z" fill="#606060"/>
<path d="M11.3033 11.0459C11.8891 11.6317 12.8389 11.6317 13.4246 11.0459L17.6672 6.8033C18.2529 6.21751 18.2529 5.26777 17.6672 4.68198C17.0814 4.09619 16.1318 4.09612 15.546 4.6819L11.3033 8.92455C10.7175 9.51033 10.7175 10.4601 11.3033 11.0459Z" fill="#606060"/>
</svg>
