<svg width="24" height="24" viewBox="0 0 24 24" fill="none" xmlns="http://www.w3.org/2000/svg">
<path d="M12 0C5.383 0 0 5.383 0 12C0 18.617 5.383 24 12 24C18.617 24 24 18.617 24 12C24 5.383 18.617 0 12 0ZM12 22C6.486 22 2 17.514 2 12C2 6.486 6.486 2 12 2C17.514 2 22 6.486 22 12C22 17.514 17.514 22 12 22Z" fill="#34C759"/>
<path d="M15.7315 8.36001L11.4325 13.5185L9.20651 11.293C8.81651 10.9025 8.18251 10.9025 7.79251 11.293C7.40201 11.6835 7.40201 12.3165 7.79251 12.707L10.7925 15.707C10.981 15.895 11.2355 16 11.5 16C11.515 16 11.5305 16 11.5455 15.999C11.826 15.9865 12.0885 15.856 12.2685 15.64L17.2685 9.64001C17.622 9.21552 17.5645 8.58551 17.1405 8.23151C16.716 7.87851 16.085 7.93551 15.7315 8.36001Z" fill="#34C759"/>
</svg>
