<svg width="242" height="40" viewBox="0 0 242 40" fill="none" xmlns="http://www.w3.org/2000/svg">
<g clip-path="url(#clip0_60_59)">
<mask id="mask0_60_59" style="mask-type:luminance" maskUnits="userSpaceOnUse" x="0" y="0" width="242" height="40">
<path d="M241.505 0H0V40H241.505V0Z" fill="white"/>
</mask>
<g mask="url(#mask0_60_59)">
<path d="M160.148 35.417C159.488 35.5237 159.264 34.3108 159.376 33.3176C159.488 32.3244 160.701 30.7776 157.828 30.2239C154.955 29.6703 152.085 33.9801 150.758 33.5395C149.431 33.0989 151.533 29.6724 149.874 29.5625C148.215 29.4527 145.235 31.2182 143.58 32.3234C141.925 33.4286 136.732 35.6389 135.407 35.3104C134.083 34.9818 134.302 33.3197 134.302 32.7672C134.302 32.2146 134.636 33.2088 134.744 31.4411C134.852 29.6735 132.974 29.3364 131.979 29.123C131.262 28.9609 130.451 28.1768 130.101 29.5647C130.019 30.1186 129.746 30.6264 129.329 31.0006C128.886 31.4411 126.568 33.2088 125.021 34.3076C123.474 35.4064 119.277 37.4012 117.509 36.9596C115.741 36.518 115.079 35.0842 116.294 32.541C117.509 29.9978 114.969 29.7791 112.427 32.541C111.42 33.6344 108.45 34.3695 106.026 35.528C104.328 36.3323 102.786 35.5674 104.807 33.8713C105.811 32.9554 106.735 31.9562 107.571 30.8843C107.743 30.6966 107.868 30.4702 107.935 30.2242C108.002 29.9782 108.008 29.7197 107.954 29.4706C107.9 29.2214 107.787 28.9889 107.625 28.7925C107.462 28.5961 107.255 28.4417 107.02 28.3421C105.803 27.9005 105.581 28.3421 104.808 29.0046C104.061 29.5004 103.155 29.6979 102.27 29.5583C101.496 29.5583 95.6389 29.665 94.2052 29.665C92.7714 29.665 92.8802 28.3389 92.8802 27.8962C93.4587 26.4414 93.4587 24.8204 92.8802 23.3656C91.8871 20.6048 93.7646 20.8277 94.8677 20.1653C95.9707 19.5028 98.515 18.5096 98.7347 15.0831C98.9545 11.6566 97.0748 8.5139 94.537 8.34641C91.2235 8.12345 88.2429 10.4458 86.3643 11.6598C84.4857 12.8738 79.9551 15.6368 78.5203 17.1826C77.0844 17.0759 74.1006 17.1826 73.4382 17.6231C72.7757 18.0637 72.5538 19.9434 73.3315 19.9434C74.1092 19.9434 73.7742 21.1584 73.1107 21.599C72.4471 22.0396 70.7915 24.3609 69.4676 25.577C67.697 27.4095 66.2083 29.4947 65.0501 31.7644C64.7172 32.8696 64.8282 35.6304 66.4849 35.8501C68.1416 36.0699 68.5822 33.8649 70.4619 34.1934C71.8817 34.4431 70.9174 39.2756 76.3163 39.8292C79.1742 40.1205 82.8344 38.3912 84.8218 37.1772C86.8092 35.9632 91.0091 32.9784 92.2242 31.0966C94.4351 30.986 96.6513 31.0599 98.8499 31.3174C100.287 31.4241 103.16 30.7659 103.16 31.7601C103.16 32.7543 98.7401 36.3985 98.7401 36.8401C98.7401 37.2818 98.7401 38.6067 100.949 38.7177C104.369 38.8905 108.464 34.7407 110.892 34.8527C114.314 35.0074 108.904 38.8297 117.411 38.8297C125.917 38.8297 129.341 31.7612 131.108 31.8711C134.415 32.078 129.009 36.8423 133.979 37.062C139.612 37.3127 145.578 31.982 146.795 32.2028C148.013 32.4236 147.016 34.3001 146.571 35.1834C146.427 35.4162 146.348 35.6835 146.344 35.9573C146.339 36.231 146.408 36.501 146.544 36.7386C146.68 36.9763 146.878 37.1728 147.116 37.3075C147.354 37.4421 147.625 37.5099 147.898 37.5037C149.444 37.6103 154.636 32.6455 155.629 32.7533C156.622 32.861 156.292 34.1892 156.292 35.6272C156.292 37.0652 157.397 37.062 158.281 37.3927C159.166 37.7234 159.387 37.0609 160.159 36.6193C160.931 36.1776 160.821 35.2965 160.159 35.4053M85.5909 32.7533C84.0452 34.4121 78.5214 37.5037 76.0966 37.2828C73.6718 37.062 71.567 33.7475 73.3326 30.4341C75.7648 30.4341 77.3116 30.3274 78.6366 30.3274C80.9293 30.351 83.2175 30.5357 85.4843 30.88C87.5858 31.3206 87.0439 31.2064 85.5909 32.7565M90.5611 25.4661C90.2907 26.848 89.6815 28.1413 88.7881 29.2297C87.2423 29.3428 83.3752 28.3464 81.2758 28.2365C79.4726 28.1226 77.664 28.1226 75.8608 28.2365C74.7588 28.3432 74.538 27.3554 75.0885 26.4678C76.2888 24.6844 77.6578 23.0204 79.1764 21.4987C80.361 21.5281 81.5423 21.639 82.7117 21.8305C84.4719 22.0247 86.7985 21.9372 88.0136 22.0503C89.2286 22.8237 90.7776 24.0388 90.5536 25.4736M87.573 18.516C78.0723 18.1843 85.4715 15.7541 88.4552 13.6558C90.0351 12.5442 91.7719 11.1147 92.7629 11.1147C93.7539 11.1147 94.7524 11.4465 94.6404 14.9818C94.5284 18.5171 89.681 18.5886 87.573 18.516ZM49.8495 27.0183C47.7522 25.8043 48.196 26.0251 47.3095 26.9116C46.5676 27.8619 45.6719 28.6815 44.6596 29.3364C42.1436 30.2674 39.4946 30.7897 36.8135 30.8832C34.2756 30.7765 32.9496 30.3306 34.7172 29.0035C36.4849 27.6765 36.5905 24.4857 33.7177 24.5956C30.8448 24.7055 26.9777 26.6204 25.9227 28.739C25.3466 29.8932 25.5685 30.5941 23.7134 31.487C21.503 32.5463 18.9225 33.4264 17.5975 33.0957C16.2726 32.765 14.9455 32.876 15.3882 30.7765C15.831 28.6771 16.2491 28.4296 17.157 25.8053C19.29 23.8524 21.3173 21.787 23.2301 19.618C25.6624 18.9534 34.1657 17.4076 38.2547 14.8666C43.4243 11.6524 50.2272 4.88151 45.8715 0.838409C42.7778 -2.03443 35.2688 3.26854 33.7198 4.92525C32.1708 6.58196 23.34 15.4202 22.2348 16.5244C20.5792 15.752 17.4631 15.4512 16.0475 13.1011C14.713 10.8757 13.9502 9.90071 12.7405 10.6677C11.9873 11.1478 12.3565 12.3372 12.8472 13.6547C13.2615 14.7887 13.9366 15.8093 14.8182 16.6341C15.6997 17.4589 16.7629 18.0649 17.9218 18.4029C21.2385 19.3972 19.4708 19.8378 18.8083 20.5013C18.1459 21.1648 11.0742 27.6829 7.87171 30.2218C4.66924 32.7607 -1.293 35.5237 0.250631 38.1779C0.932304 39.3417 3.12347 37.2935 3.78594 37.0705C4.44841 36.8476 5.2229 36.9639 5.77335 36.4081C6.32381 35.8523 7.87491 33.6483 9.41854 33.5374C10.9622 33.4264 11.5521 35.3797 13.1757 35.6368C15.2602 35.9568 24.2212 34.7514 25.88 33.4264C27.2876 33.7878 28.7345 33.973 30.1877 33.9779C32.8579 33.7658 35.5134 33.3975 38.1405 32.8749C39.4655 32.4332 40.1301 33.0947 39.6874 33.7571C39.2447 34.4196 37.1474 37.2924 39.0249 39.0601C40.9024 40.8277 46.9799 39.0601 49.186 37.844C51.3921 36.6278 54.378 33.8691 54.378 32.3212C54.378 30.7733 51.9489 28.2344 49.8495 27.0183ZM27.7586 14.9786C29.0836 12.5463 29.6362 12.6594 30.6315 11.4433C32.1186 9.62441 37.701 2.80449 42.6712 2.60393C45.432 2.49725 45.1013 5.25595 44.3289 6.58302C43.5566 7.9101 39.3588 12.5463 36.486 13.9833C34.4566 15.1101 32.255 15.8937 29.9701 16.3025C28.643 16.4091 26.4316 17.4076 27.7586 14.9786ZM32.4834 27.8664C31.8859 28.3698 31.198 28.755 30.4565 29.0014C29.9489 29.1449 29.4233 29.2149 28.8958 29.2094C28.5897 29.1806 28.0541 29.2916 28.4339 28.8713C28.653 28.6355 28.9123 28.4408 29.1999 28.2963C29.5946 28.0008 31.0838 26.8956 32.2252 27.0396C32.8653 27.1196 32.7 27.6402 32.4802 27.8664M46.9777 36.1872C43.9908 36.518 44.8762 37.6231 43.9908 37.6231C43.1053 37.6231 40.2357 37.2924 41.8945 35.5258C43.5534 33.7593 47.3053 29.1177 49.4047 29.1177C51.2822 29.1177 51.9447 30.8864 51.9447 32.2114C51.9447 33.5363 49.9583 35.8555 46.9767 36.1883M238.57 18.3667C236.65 18.2205 229.88 18.0722 226.344 17.925C222.808 17.7778 218.245 17.189 215.3 17.189C213.679 17.189 210.439 17.6295 209.112 16.7462C207.785 15.8629 202.041 15.1269 200.421 15.1269C198.802 15.1269 195.413 14.2425 193.061 14.0964C190.708 13.9502 189.672 12.3287 185.7 12.3287C182.312 12.3287 184.816 15.5685 187.025 16.1584C189.233 16.7484 189.234 20.7243 189.97 24.7002C190.706 28.676 188.941 30.2976 188.056 31.1819C187.172 32.0663 185.553 33.8339 184.228 32.9485C182.903 32.0631 183.787 31.0347 185.996 27.9346C188.206 24.8346 184.524 24.2542 183.344 25.5792C182.094 27.2157 180.604 28.6542 178.925 29.8463C177.011 31.0198 175.627 32.7127 171.855 33.8243C168.109 34.9252 168.73 32.9154 172.298 30.7307C174.283 29.5145 173.133 27.2466 170.448 27.3874C167.651 27.5346 167.505 28.1245 164.411 29.746C162.396 30.7989 161.723 31.7356 161.693 32.9304C161.833 33.4504 161.999 33.9631 162.191 34.4665C162.236 34.6799 161.69 34.8932 161.751 35.145C161.818 35.4202 162.497 35.7189 162.54 35.8128C162.826 36.3765 163.278 36.8391 163.834 37.1383C164.391 37.4375 165.026 37.5591 165.654 37.4866C167.272 37.4866 171.267 35.8864 175.832 33.5299C180.397 31.1734 179.663 32.6466 180.398 33.9715C181.133 35.2965 182.018 35.5909 184.229 35.001C186.439 34.4111 185.554 35.5909 184.966 36.6225C184.378 37.6541 184.67 38.2451 186.438 39.5679C188.206 40.8907 188.499 38.8318 188.794 37.3586C189.09 35.8854 193.214 31.7633 193.95 30.5835C194.686 29.4036 197.19 28.9641 198.074 28.0808C198.579 27.5611 198.897 26.8882 198.977 26.1681C199.057 25.4481 198.895 24.7218 198.517 24.1038C197.633 22.6285 195.275 24.9882 193.802 26.3131C192.329 27.6381 192.033 26.4582 191.888 25.1333C191.634 22.6725 191.09 20.2505 190.267 17.9176C189.235 15.2645 191.739 15.7093 192.625 15.9974C193.512 16.2854 195.865 16.4422 197.19 16.7345C198.515 17.0268 203.524 17.3255 206.027 17.6189C208.531 17.9122 210.889 18.7923 213.98 18.7923L223.553 19.9658C224.438 20.1151 224.733 19.378 225.619 19.5241C226.504 19.6703 227.089 20.7051 227.825 20.8523C228.561 20.9995 228.561 20.5568 229.593 20.4085C231.69 20.5002 233.768 20.8466 235.781 21.4401C237.253 21.8828 237.55 23.0605 238.726 23.0605C239.903 23.0605 240.789 22.03 241.38 20.4085C241.971 18.787 240.496 18.4958 238.581 18.3475M168.174 31.0326C167.712 31.5345 167.139 31.9208 166.501 32.1602C165.937 32.3143 165.341 32.3072 164.781 32.1399C164.535 32.0492 164.73 31.7132 165.083 31.4017C165.562 31.0915 166.07 30.8295 166.6 30.6197C166.866 30.4061 167.182 30.2644 167.518 30.2083C167.855 30.1523 168.2 30.1838 168.52 30.2997C169.036 30.513 168.376 30.8629 168.177 31.0304" fill="#606060"/>
<path d="M158.751 37.4512C160.129 37.1288 161.472 36.6725 162.761 36.0889L162.08 35.0051L162.32 34.4834C162.32 34.4834 160.756 35.8467 159.752 35.3262C158.749 34.8056 158.751 37.4512 158.751 37.4512Z" fill="#606060"/>
</g>
</g>
<defs>
<clipPath id="clip0_60_59">
<rect width="241.505" height="40" fill="white"/>
</clipPath>
</defs>
</svg>
