<svg width="95" height="32" viewBox="0 0 95 32" fill="none" xmlns="http://www.w3.org/2000/svg">
<path fill-rule="evenodd" clip-rule="evenodd" d="M0 15.0911C0 14.4888 0.491533 13.998 1.09478 13.998C1.69802 13.998 2.18956 14.4888 2.18956 15.0911C2.18956 15.6934 1.69802 16.1842 1.09478 16.1842C0.491533 16.1842 0 15.6934 0 15.0911Z" fill="#F2F2F2"/>
<path fill-rule="evenodd" clip-rule="evenodd" d="M0.18988 19.0618C0.18988 18.4595 0.681414 17.9688 1.28466 17.9688C1.8879 17.9688 2.37944 18.4595 2.37944 19.0618C2.37944 19.6641 1.8879 20.1549 1.28466 20.1549C0.681414 20.1549 0.18988 19.6641 0.18988 19.0618Z" fill="#F2F2F2"/>
<path fill-rule="evenodd" clip-rule="evenodd" d="M1.46344 9.92705C1.46344 9.32475 1.95497 8.83398 2.55822 8.83398C3.16146 8.83398 3.653 9.32475 3.653 9.92705C3.653 10.5293 3.16146 11.0201 2.55822 11.0201C1.95497 11.0201 1.46344 10.5293 1.46344 9.92705Z" fill="#F2F2F2"/>
<path fill-rule="evenodd" clip-rule="evenodd" d="M3.49658 6.75908C3.49658 6.15678 3.98812 5.66602 4.59136 5.66602C5.19461 5.66602 5.68614 6.15678 5.68614 6.75908C5.68614 7.36138 5.19461 7.85214 4.59136 7.85214C3.98812 7.85214 3.49658 7.36138 3.49658 6.75908Z" fill="#F2F2F2"/>
<path fill-rule="evenodd" clip-rule="evenodd" d="M9.56256 2.43144C9.56256 1.82914 10.0541 1.33838 10.6573 1.33838C11.2606 1.33838 11.7521 1.82914 11.7521 2.43144C11.7521 3.03374 11.2606 3.52451 10.6573 3.52451C10.0541 3.52451 9.56256 3.03374 9.56256 2.43144Z" fill="#F2F2F2"/>
<path d="M12.1096 7.30588C12.3554 8.29856 11.942 8.8674 11.9756 9.1797C11.9979 9.43624 10.9701 8.92317 10.6015 7.86357C10.3446 7.09396 10.7132 6.39128 10.7467 5.82244C10.7579 5.57706 11.8527 6.34666 12.1096 7.30588Z" fill="#F2F2F2"/>
<path fill-rule="evenodd" clip-rule="evenodd" d="M6.76978 3.87041C6.76978 3.26811 7.26131 2.77734 7.86455 2.77734C8.4678 2.77734 8.95933 3.26811 8.95933 3.87041C8.95933 4.47271 8.4678 4.96347 7.86455 4.96347C7.26131 4.96347 6.76978 4.47271 6.76978 3.87041Z" fill="#F2F2F2"/>
<path d="M20.0077 4.13814C20.9349 3.93738 21.4264 4.42814 21.7057 4.41699C21.9515 4.41699 21.4041 5.4989 20.4098 5.8112C19.6837 6.04543 19.0693 5.58813 18.5442 5.51005C18.3208 5.47659 19.1028 4.33891 19.9965 4.13814" fill="#F2F2F2"/>
<path d="M14.6119 9.13498C14.8577 10.1277 14.4444 10.6965 14.4779 11.0088C14.5002 11.2765 13.4725 10.7523 13.1038 9.69267C12.8357 8.91191 13.2155 8.22038 13.249 7.65154C13.2602 7.40616 14.355 8.17576 14.6119 9.13498Z" fill="#F2F2F2"/>
<path fill-rule="evenodd" clip-rule="evenodd" d="M20.8455 2.49834C20.8455 1.89604 21.337 1.40527 21.9402 1.40527C22.5435 1.40527 23.035 1.89604 23.035 2.49834C23.035 3.10064 22.5435 3.5914 21.9402 3.5914C21.337 3.5914 20.8455 3.10064 20.8455 2.49834Z" fill="#F2F2F2"/>
<path fill-rule="evenodd" clip-rule="evenodd" d="M23.7612 4.07109C23.7612 3.46879 24.2527 2.97803 24.8559 2.97803C25.4592 2.97803 25.9507 3.46879 25.9507 4.07109C25.9507 4.67339 25.4592 5.16415 24.8559 5.16415C24.2527 5.16415 23.7612 4.67339 23.7612 4.07109Z" fill="#F2F2F2"/>
<path fill-rule="evenodd" clip-rule="evenodd" d="M16.9914 1.47246C16.9914 0.870158 17.4829 0.379395 18.0862 0.379395C18.6894 0.379395 19.181 0.870158 19.181 1.47246C19.181 2.07476 18.6894 2.56552 18.0862 2.56552C17.4829 2.56552 16.9914 2.07476 16.9914 1.47246Z" fill="#F2F2F2"/>
<path fill-rule="evenodd" clip-rule="evenodd" d="M13.2938 1.49443C13.2938 0.892131 13.7853 0.401367 14.3885 0.401367C14.9918 0.401367 15.4833 0.892131 15.4833 1.49443C15.4833 2.09673 14.9918 2.58749 14.3885 2.58749C13.7853 2.58749 13.2938 2.09673 13.2938 1.49443Z" fill="#F2F2F2"/>
<path fill-rule="evenodd" clip-rule="evenodd" d="M26.6545 6.67021C26.6545 6.06791 27.1461 5.57715 27.7493 5.57715C28.3526 5.57715 28.8441 6.06791 28.8441 6.67021C28.8441 7.27251 28.3526 7.76328 27.7493 7.76328C27.1461 7.76328 26.6545 7.27251 26.6545 6.67021Z" fill="#F2F2F2"/>
<path fill-rule="evenodd" clip-rule="evenodd" d="M28.7882 9.91582C28.7882 9.31352 29.2797 8.82275 29.883 8.82275C30.4862 8.82275 30.9778 9.31352 30.9778 9.91582C30.9778 10.5181 30.4862 11.0089 29.883 11.0089C29.2797 11.0089 28.7882 10.5181 28.7882 9.91582Z" fill="#F2F2F2"/>
<path d="M23.9399 9.704C24.8671 9.88246 25.1576 10.5071 25.4257 10.6074C25.6491 10.6967 24.7778 11.4328 23.7388 11.3324C22.9792 11.2544 22.5659 10.6186 22.1078 10.3509C21.9068 10.2394 23.0239 9.54784 23.9399 9.704Z" fill="#F2F2F2"/>
<path d="M25.8837 7.6628C26.8109 7.84126 27.1013 8.46587 27.3695 8.56625C27.5929 8.65548 26.7215 9.40278 25.6826 9.29124C24.923 9.21317 24.5096 8.57741 24.0516 8.30972C23.8505 8.18703 24.9788 7.50665 25.8837 7.6628Z" fill="#F2F2F2"/>
<path fill-rule="evenodd" clip-rule="evenodd" d="M32.3965 14.7674C32.3965 14.1651 31.905 13.6743 31.3017 13.6743C30.6985 13.6743 30.207 14.1651 30.207 14.7674C30.207 15.3697 30.6985 15.8604 31.3017 15.8604C31.905 15.8604 32.3965 15.3697 32.3965 14.7674Z" fill="#F2F2F2"/>
<path fill-rule="evenodd" clip-rule="evenodd" d="M32.3295 18.9725C32.3295 18.3702 31.838 17.8794 31.2347 17.8794C30.6315 17.8794 30.14 18.3702 30.14 18.9725C30.14 19.5748 30.6315 20.0655 31.2347 20.0655C31.838 20.0655 32.3295 19.5748 32.3295 18.9725Z" fill="#F2F2F2"/>
<path d="M17.9186 8.98996C17.5165 9.8488 17.8628 10.4734 17.7957 10.7634C17.7399 10.9976 18.8793 10.7746 19.4156 9.88226C19.8066 9.22419 19.5161 8.48805 19.5496 7.95267C19.572 7.71844 18.3208 8.16459 17.9186 9.00112" fill="#F2F2F2"/>
<path d="M20.8008 6.7815C20.3987 7.64033 20.745 8.26494 20.6779 8.55494C20.6221 8.78917 21.7615 8.55494 22.2978 7.66264C22.6776 7.00457 22.3983 6.26843 22.4318 5.73305C22.4542 5.49882 21.203 5.95612 20.8008 6.7815Z" fill="#F2F2F2"/>
<path d="M18.7565 14.0871C18.3543 14.946 18.7006 15.5706 18.6336 15.8606C18.5777 16.0948 19.7172 15.8717 20.2534 14.9794C20.6444 14.3214 20.3539 13.5852 20.3875 13.0498C20.4098 12.8156 19.1586 13.2618 18.7565 14.0983" fill="#F2F2F2"/>
<path d="M22.1972 12.9382C21.795 13.797 22.1525 14.4328 22.0743 14.7116C22.0185 14.9459 23.1579 14.7116 23.6941 13.8193C24.0851 13.1724 23.7947 12.4251 23.8282 11.8897C23.8505 11.6555 22.5994 12.1017 22.1972 12.927" fill="#F2F2F2"/>
<path d="M25.7832 11.678C25.381 12.5368 25.7273 13.1726 25.6603 13.4514C25.6044 13.6857 26.7439 13.4514 27.2801 12.5703C27.6711 11.9122 27.3695 11.1761 27.4142 10.6295C27.4365 10.3953 26.1854 10.8526 25.7832 11.678Z" fill="#F2F2F2"/>
<path d="M20.6221 18.2812C19.896 18.8835 19.9406 19.6085 19.7619 19.8315C19.6055 20.0211 20.7338 20.3 21.6052 19.7088C22.2307 19.285 22.2754 18.4931 22.5435 18.0246C22.6664 17.8239 21.337 17.7012 20.6221 18.2812Z" fill="#F2F2F2"/>
<path d="M23.9846 18.5042C23.2584 19.1177 23.3031 19.8315 23.1244 20.0546C22.968 20.2442 24.1075 20.5231 24.9676 19.9319C25.5932 19.5081 25.6379 18.705 25.906 18.2365C26.0289 18.0358 24.6995 17.9131 23.9846 18.4931" fill="#F2F2F2"/>
<path d="M27.3695 18.8164C26.6433 19.4299 26.688 20.1437 26.5093 20.3779C26.3529 20.5675 27.4812 20.8464 28.3414 20.2552C28.9669 19.8314 29.0116 19.0395 29.2909 18.571C29.4138 18.3703 28.0844 18.2476 27.3695 18.8276" fill="#F2F2F2"/>
<path d="M4.47965 11.9903C4.12217 11.1092 4.50199 10.4957 4.44613 10.2169C4.40145 9.98263 5.52974 10.2615 6.0101 11.1872C6.35641 11.8565 6.03245 12.5814 6.05479 13.128C6.05479 13.3622 4.83713 12.8491 4.47965 12.0015" fill="#F2F2F2"/>
<path d="M8.02091 13.4626C7.66343 12.5814 8.04325 11.968 7.98739 11.6891C7.94271 11.4438 9.071 11.7338 9.55136 12.6595C9.89767 13.3287 9.57371 14.0537 9.59605 14.5891C9.59605 14.8233 8.37839 14.3103 8.02091 13.4626Z" fill="#F2F2F2"/>
<path d="M11.5734 14.6896C11.2159 13.8085 11.5957 13.2062 11.5399 12.9162C11.4952 12.6708 12.6235 12.9608 13.1039 13.8866C13.4502 14.5558 13.1262 15.2808 13.1485 15.8162C13.1485 16.0504 11.9309 15.5373 11.5734 14.6896Z" fill="#F2F2F2"/>
<path d="M7.01551 19.7422C6.35641 19.0619 6.4793 18.348 6.3229 18.1026C6.18884 17.8907 7.35065 17.7457 8.14381 18.4149C8.72471 18.9057 8.6912 19.7088 8.91462 20.1884C9.00399 20.4003 7.67462 20.3891 7.02669 19.7311" fill="#F2F2F2"/>
<path d="M10.3334 19.3852C9.67428 18.7048 9.79717 18.0022 9.64077 17.7568C9.50672 17.5449 10.6685 17.3887 11.4617 18.0691C12.0426 18.5598 11.9979 19.3518 12.2213 19.8425C12.3107 20.0544 10.9925 20.0433 10.3334 19.3852Z" fill="#F2F2F2"/>
<path d="M3.85405 20.0992C3.19495 19.4189 3.31783 18.7162 3.16143 18.4708C3.02738 18.2589 4.17801 18.1139 4.97117 18.7831C5.55207 19.2739 5.51856 20.0658 5.73081 20.5565C5.83135 20.7685 4.50198 20.7573 3.84288 20.0992" fill="#F2F2F2"/>
<path d="M28.7212 14.9462C29.5255 15.4481 29.5702 16.1285 29.7825 16.3293C29.9612 16.4966 28.8776 16.8646 27.9504 16.3962C27.2689 16.0616 27.1125 15.3143 26.7886 14.9016C26.6434 14.7231 27.9392 14.4777 28.7212 14.9462Z" fill="#F2F2F2"/>
<path d="M26.0736 15.9499C26.9115 16.396 27.0009 17.0652 27.2354 17.2548C27.4254 17.411 26.3753 17.8571 25.4145 17.4556C24.7108 17.1656 24.5097 16.4295 24.1522 16.0391C23.9958 15.8718 25.2693 15.5372 26.0848 15.9499" fill="#F2F2F2"/>
<path d="M12.2883 4.08219C11.3499 3.94835 10.8696 4.43911 10.5903 4.45026C10.3445 4.46142 10.9366 5.44294 11.9532 5.68833C12.6905 5.85563 13.2937 5.39833 13.8076 5.28679C14.031 5.24218 13.2044 4.21604 12.2883 4.08219Z" fill="#F2F2F2"/>
<path d="M6.52398 7.59578C5.59677 7.77424 5.30632 8.39885 5.03821 8.51038C4.81479 8.59961 5.69731 9.33576 6.72506 9.22422C7.48471 9.14615 7.89804 8.51038 8.35606 8.2427C8.55714 8.12 7.44002 7.42847 6.53515 7.59578" fill="#F2F2F2"/>
<path d="M8.57949 9.49193C7.65228 9.65924 7.35066 10.2727 7.07138 10.3731C6.84795 10.4511 7.70814 11.2096 8.74706 11.1204C9.5067 11.0534 9.93121 10.4288 10.3892 10.1612C10.5903 10.0496 9.48436 9.33578 8.56832 9.48078" fill="#F2F2F2"/>
<path d="M3.88761 15.0351C3.04977 15.4812 2.9604 16.1616 2.7258 16.3289C2.53589 16.4851 3.59716 16.9312 4.55788 16.5297C5.26167 16.2285 5.46275 15.5035 5.8314 15.1131C5.9878 14.9347 4.71428 14.6001 3.89878 15.0239" fill="#F2F2F2"/>
<path d="M6.41229 15.9833C5.57445 16.4183 5.46274 17.0875 5.22814 17.266C5.03823 17.411 6.08832 17.8795 7.04905 17.5002C7.75283 17.2214 7.97626 16.4964 8.34491 16.106C8.50131 15.9387 7.23896 15.5818 6.41229 15.9945" fill="#F2F2F2"/>
<path fill-rule="evenodd" clip-rule="evenodd" d="M17.0808 29.3453H26.2189C26.6657 29.0218 27.3248 28.4195 27.6935 28.0737H17.3042L17.0696 29.3453H17.0808Z" fill="#F2F2F2"/>
<path fill-rule="evenodd" clip-rule="evenodd" d="M16.6116 31.766H21.8844C22.5435 31.5207 23.5712 31.0522 24.0851 30.7622H16.8015L16.6116 31.766Z" fill="#F2F2F2"/>
<path fill-rule="evenodd" clip-rule="evenodd" d="M15.4051 29.3453L6.30059 29.3676C5.87608 29.0665 5.1723 28.4307 4.82599 28.085H15.1594L15.4051 29.3453Z" fill="#F2F2F2"/>
<path fill-rule="evenodd" clip-rule="evenodd" d="M15.8631 31.766H10.6127C9.75247 31.476 8.82526 30.9853 8.40076 30.7622H15.662L15.852 31.766H15.8631Z" fill="#F2F2F2"/>
<path fill-rule="evenodd" clip-rule="evenodd" d="M17.6505 26.4231H29.1345C29.4361 26.055 30.0282 25.1627 30.2628 24.75H17.9745L17.6393 26.4231H17.6505Z" fill="#F2F2F2"/>
<path fill-rule="evenodd" clip-rule="evenodd" d="M14.8242 26.4231H3.34021C2.97156 25.9769 2.45768 25.1738 2.21191 24.75H14.5114L14.8242 26.4231Z" fill="#F2F2F2"/>
<path d="M15.8408 5.94505L11.8303 0.870115L15.7067 7.8858L15.3604 12.8827L5.47388 4.39469L15.2375 14.7676L15.0476 17.1991L0.592062 11.7338L14.9247 19.0061L14.8577 20.0322L0.458008 21.5714L14.7572 21.5937L14.5337 24.6833H17.9521L17.7175 21.6049L31.9385 21.6383L17.6058 20.0545L17.5276 19.0061L31.7821 11.7227L17.4159 17.0988L17.226 14.5111L27.2019 4.46161L17.1143 12.6484L16.768 7.67388L20.8231 0.925884L16.6339 5.75544L16.2429 0.0893555L15.8408 5.94505Z" fill="#F2F2F2"/>
<path d="M44.6848 18.5934L42.4506 14.5111H41.6016V18.5934H39.1774V8.3208H43.0985C43.5901 8.3208 44.0816 8.37657 44.5508 8.47695C45.02 8.57734 45.4333 8.74464 45.8131 8.99002C46.1818 9.23541 46.4834 9.54771 46.7068 9.94924C46.9303 10.3396 47.042 10.8415 47.042 11.4215C47.042 12.1131 46.8521 12.7042 46.4722 13.1727C46.1036 13.6523 45.5785 13.9869 44.9083 14.1877L47.5894 18.5822H44.6848V18.5934ZM44.5843 11.4661C44.5843 11.2208 44.5284 11.0312 44.4279 10.875C44.3274 10.73 44.1933 10.6073 44.0257 10.5292C43.8693 10.4512 43.6906 10.3954 43.4895 10.3619C43.2884 10.3285 43.0985 10.3173 42.9198 10.3173H41.5904V12.7154H42.7746C42.9756 12.7154 43.1879 12.6931 43.4001 12.6707C43.6124 12.6373 43.8023 12.5704 43.9811 12.4923C44.1598 12.4031 44.2938 12.2804 44.4056 12.1131C44.5173 11.9458 44.5731 11.7338 44.5731 11.4773" fill="#F2F2F2"/>
<path d="M55.7779 18.5934L54.9847 16.5745H50.9966L50.2369 18.5934H47.5335L51.8456 8.3208H54.2586L58.526 18.5934H55.7667H55.7779ZM53.0186 11.0646L51.7115 14.5892H54.3033L53.0186 11.0646Z" fill="#F2F2F2"/>
<path d="M68.7253 18.5934L68.7923 11.3323H68.7476L66.0666 18.5934H64.3238L61.721 11.3323H61.6763L61.7433 18.5934H59.3973V8.3208H62.9386L65.2734 14.9126H65.3404L67.5747 8.3208H71.1718V18.5934H68.7253Z" fill="#F2F2F2"/>
<path d="M83.9964 13.4182C83.9964 14.2324 83.8511 14.9685 83.5718 15.6377C83.2926 16.307 82.9016 16.887 82.3989 17.3666C81.8962 17.8462 81.3041 18.2143 80.6226 18.4708C79.93 18.7385 79.1816 18.8612 78.3884 18.8612C77.5952 18.8612 76.8468 18.7273 76.1542 18.4708C75.4727 18.2143 74.8806 17.835 74.3779 17.3666C73.8752 16.887 73.4842 16.307 73.205 15.6377C72.9257 14.9685 72.7805 14.2212 72.7805 13.4182C72.7805 12.6151 72.9145 11.8566 73.205 11.1874C73.4842 10.5293 73.8752 9.96051 74.3779 9.50321C74.8806 9.03475 75.4727 8.67783 76.1542 8.43245C76.8356 8.17591 77.5841 8.05322 78.3884 8.05322C79.1927 8.05322 79.9412 8.17591 80.6226 8.43245C81.3153 8.68898 81.9073 9.0459 82.3989 9.50321C82.9016 9.96051 83.2926 10.5293 83.5718 11.1874C83.8511 11.8455 83.9964 12.5928 83.9964 13.4182ZM81.3376 13.4182C81.3376 12.972 81.2594 12.5593 81.1142 12.1689C80.969 11.7786 80.7679 11.444 80.5109 11.1763C80.254 10.8974 79.9412 10.6855 79.5837 10.5293C79.2262 10.3732 78.8241 10.2951 78.3884 10.2951C77.9527 10.2951 77.5617 10.3732 77.1931 10.5293C76.8356 10.6855 76.5228 10.9086 76.2659 11.1763C76.0089 11.4551 75.8079 11.7897 75.6626 12.1689C75.5286 12.5593 75.4504 12.972 75.4504 13.4182C75.4504 13.8643 75.5286 14.3105 75.6626 14.7008C75.8079 15.0912 76.0089 15.4258 76.2659 15.7158C76.5228 15.9947 76.8356 16.2177 77.1931 16.3739C77.5506 16.53 77.9527 16.6193 78.3884 16.6193C78.8241 16.6193 79.2262 16.5412 79.5837 16.3739C79.9412 16.2177 80.254 15.9947 80.5109 15.7158C80.7679 15.437 80.969 15.1024 81.1254 14.7008C81.2706 14.3105 81.3488 13.8755 81.3488 13.4182" fill="#F2F2F2"/>
<path d="M92.1849 18.5934L88.0404 11.8788H87.9957L88.0515 18.5934H85.6385V8.3208H88.476L92.5982 15.0242H92.6429L92.587 8.3208H95V18.5934H92.1849Z" fill="#F2F2F2"/>
<path d="M39.1886 31.7213V21.3818H41.7021V29.5464H45.7126V31.7213H39.1886Z" fill="#F2F2F2"/>
<path d="M46.8856 31.7213V21.3818H49.3991V29.5464H53.4095V31.7213H46.8856Z" fill="#F2F2F2"/>
<path d="M62.6928 29.524C62.4806 30.037 62.179 30.472 61.7991 30.8401C61.4081 31.197 60.939 31.487 60.3916 31.6878C59.833 31.8886 59.2298 32.0001 58.5595 32.0001C57.8892 32.0001 57.2636 31.8997 56.7162 31.6878C56.1688 31.487 55.7108 31.197 55.3198 30.8401C54.94 30.472 54.6496 30.037 54.4485 29.524C54.2474 29.0109 54.1357 28.4421 54.1357 27.8175V21.3706H56.6157V27.6055C56.6157 27.8844 56.6492 28.1521 56.7274 28.4086C56.8056 28.654 56.9173 28.8882 57.0625 29.089C57.2078 29.2897 57.4088 29.4459 57.6546 29.5574C57.9004 29.6801 58.202 29.7359 58.5595 29.7359C58.917 29.7359 59.2074 29.6801 59.4532 29.5574C59.6989 29.4459 59.9112 29.2897 60.0676 29.089C60.224 28.8882 60.3357 28.6651 60.4027 28.4086C60.4698 28.1521 60.5033 27.8844 60.5033 27.6055V21.3706H63.0056V27.8175C63.0056 28.4421 62.9051 29.0109 62.6928 29.524Z" fill="#F2F2F2"/>
<path d="M65.0276 31.7213V21.3818H67.5412V29.5464H71.5516V31.7213H65.0276Z" fill="#F2F2F2"/>
<path d="M72.7246 31.7213V21.3818H75.2381V29.5464H79.2486V31.7213H72.7246Z" fill="#F2F2F2"/>
<path d="M43.6012 3.35721C43.6012 3.66952 43.5454 3.93721 43.4448 4.19374C43.3443 4.43912 43.1879 4.65104 43.0092 4.8295C42.8193 5.00796 42.607 5.13065 42.3501 5.23104C42.0931 5.32027 41.825 5.36488 41.5234 5.36488C41.2218 5.36488 40.9537 5.32027 40.6967 5.23104C40.4398 5.13065 40.2275 5.00796 40.0376 4.8295C39.8477 4.65104 39.7025 4.45028 39.602 4.19374C39.5014 3.94836 39.4456 3.66952 39.4456 3.35721V0.133789H40.3616V3.32375C40.3616 3.46875 40.3839 3.61375 40.4175 3.7699C40.451 3.9149 40.518 4.04874 40.6074 4.16028C40.6967 4.27182 40.8196 4.3722 40.9648 4.43912C41.1101 4.5172 41.3 4.55066 41.5122 4.55066C41.7245 4.55066 41.9144 4.5172 42.0596 4.43912C42.2048 4.3722 42.3277 4.27182 42.4171 4.16028C42.5065 4.04874 42.5735 3.9149 42.607 3.7699C42.6517 3.6249 42.6629 3.4799 42.6629 3.32375V0.133789H43.5789V3.35721H43.6012Z" fill="#F2F2F2"/>
<path d="M43.6012 3.35721C43.6012 3.66952 43.5454 3.93721 43.4448 4.19374C43.3443 4.43912 43.1879 4.65104 43.0092 4.8295C42.8193 5.00796 42.607 5.13065 42.3501 5.23104C42.0931 5.32027 41.825 5.36488 41.5234 5.36488C41.2218 5.36488 40.9537 5.32027 40.6967 5.23104C40.4398 5.13065 40.2275 5.00796 40.0376 4.8295C39.8477 4.65104 39.7025 4.45028 39.602 4.19374C39.5014 3.94836 39.4456 3.66952 39.4456 3.35721V0.133789H40.3616V3.32375C40.3616 3.46875 40.3839 3.61375 40.4175 3.7699C40.451 3.9149 40.518 4.04874 40.6074 4.16028C40.6967 4.27182 40.8196 4.3722 40.9648 4.43912C41.1101 4.5172 41.3 4.55066 41.5122 4.55066C41.7245 4.55066 41.9144 4.5172 42.0596 4.43912C42.2048 4.3722 42.3277 4.27182 42.4171 4.16028C42.5065 4.04874 42.5735 3.9149 42.607 3.7699C42.6517 3.6249 42.6629 3.4799 42.6629 3.32375V0.133789H43.5789V3.35721H43.6012Z" fill="#F2F2F2" stroke="#F2F2F2" stroke-opacity="0.12549" stroke-width="0.01" stroke-miterlimit="10"/>
<path d="M45.0982 0.133789H46.3047L48.7065 3.94836H48.7177V0.133789H49.6337V5.23104H48.4719L46.0254 1.29378H46.0031V5.23104H45.0982V0.133789Z" fill="#F2F2F2"/>
<path d="M45.0982 0.133789H46.3047L48.7065 3.94836H48.7177V0.133789H49.6337V5.23104H48.4719L46.0254 1.29378H46.0031V5.23104H45.0982V0.133789Z" fill="#F2F2F2" stroke="#F2F2F2" stroke-opacity="0.12549" stroke-width="0.01" stroke-miterlimit="10"/>
<path d="M52.0914 0.133789H51.1754V5.23104H52.0914V0.133789Z" fill="#F2F2F2"/>
<path d="M52.0914 0.133789H51.1754V5.23104H52.0914V0.133789Z" fill="#F2F2F2" stroke="#F2F2F2" stroke-opacity="0.12549" stroke-width="0.01" stroke-miterlimit="10"/>
<path d="M52.985 0.133789H54.0128L55.4315 4.0599H55.4651L56.895 0.133789H57.8892L55.8225 5.23104H55.0182L52.985 0.133789Z" fill="#F2F2F2"/>
<path d="M52.985 0.133789H54.0128L55.4315 4.0599H55.4651L56.895 0.133789H57.8892L55.8225 5.23104H55.0182L52.985 0.133789Z" fill="#F2F2F2" stroke="#F2F2F2" stroke-opacity="0.12549" stroke-width="0.01" stroke-miterlimit="10"/>
<path d="M58.7829 0.133789H62.1901V0.925703H59.6989V2.23069H62.0672V2.98914H59.6989V4.42797H62.3242V5.23104H58.7829V0.133789Z" fill="#F2F2F2"/>
<path d="M58.7829 0.133789H62.1901V0.925703H59.6989V2.23069H62.0672V2.98914H59.6989V4.42797H62.3242V5.23104H58.7829V0.133789Z" fill="#F2F2F2" stroke="#F2F2F2" stroke-opacity="0.12549" stroke-width="0.01" stroke-miterlimit="10"/>
<path d="M63.6201 0.133789H65.4075C65.6532 0.133789 65.8878 0.156096 66.1112 0.211865C66.3458 0.25648 66.5469 0.34571 66.7145 0.457247C66.8932 0.568784 67.0384 0.724936 67.139 0.914549C67.2395 1.10416 67.2954 1.32724 67.2954 1.59493C67.2954 1.963 67.1837 2.26415 66.9826 2.49838C66.7703 2.7326 66.4799 2.88876 66.1224 2.96683L67.4965 5.23104H66.3905L65.1952 3.07837H64.5249V5.23104H63.6089V0.133789H63.6201ZM65.2846 2.33107C65.4186 2.33107 65.5527 2.33107 65.6756 2.29761C65.8096 2.2753 65.9213 2.24184 66.033 2.19723C66.1336 2.14146 66.223 2.06338 66.29 1.97415C66.357 1.87377 66.3905 1.75108 66.3905 1.59493C66.3905 1.46108 66.357 1.33839 66.3011 1.24916C66.2341 1.15993 66.1559 1.09301 66.0554 1.03724C65.9548 0.981471 65.8543 0.94801 65.7202 0.925703C65.5974 0.903395 65.4745 0.892242 65.3628 0.892242H64.5361V2.31992H65.2846V2.33107Z" fill="#F2F2F2"/>
<path d="M63.6201 0.133789H65.4075C65.6532 0.133789 65.8878 0.156096 66.1112 0.211865C66.3458 0.25648 66.5469 0.34571 66.7145 0.457247C66.8932 0.568784 67.0384 0.724936 67.139 0.914549C67.2395 1.10416 67.2954 1.32724 67.2954 1.59493C67.2954 1.963 67.1837 2.26415 66.9826 2.49838C66.7703 2.7326 66.4799 2.88876 66.1224 2.96683L67.4965 5.23104H66.3905L65.1952 3.07837H64.5249V5.23104H63.6089V0.133789H63.6201ZM65.2846 2.33107C65.4186 2.33107 65.5527 2.33107 65.6756 2.29761C65.8096 2.2753 65.9213 2.24184 66.033 2.19723C66.1336 2.14146 66.223 2.06338 66.29 1.97415C66.357 1.87377 66.3905 1.75108 66.3905 1.59493C66.3905 1.46108 66.357 1.33839 66.3011 1.24916C66.2341 1.15993 66.1559 1.09301 66.0554 1.03724C65.9548 0.981471 65.8543 0.94801 65.7202 0.925703C65.5974 0.903395 65.4745 0.892242 65.3628 0.892242H64.5361V2.31992H65.2846V2.33107Z" fill="#F2F2F2" stroke="#F2F2F2" stroke-opacity="0.12549" stroke-width="0.01" stroke-miterlimit="10"/>
<path d="M71.2388 1.20468C71.1383 1.08199 71.0042 0.97045 70.8255 0.892374C70.6467 0.803144 70.468 0.769683 70.2893 0.769683C70.1776 0.769683 70.077 0.780837 69.9653 0.814298C69.8536 0.836605 69.7642 0.88122 69.6748 0.936988C69.5855 0.992757 69.5185 1.07083 69.4626 1.14891C69.4067 1.23814 69.3844 1.34968 69.3844 1.47237C69.3844 1.5839 69.4067 1.68429 69.4626 1.76236C69.5073 1.84044 69.5743 1.91852 69.6637 1.97428C69.753 2.03005 69.8536 2.08582 69.9765 2.13044C70.0994 2.17505 70.2334 2.21967 70.3786 2.26428C70.5462 2.32005 70.7138 2.37582 70.8925 2.44274C71.0712 2.50966 71.2276 2.59889 71.384 2.71043C71.5293 2.82197 71.6522 2.95581 71.7527 3.12312C71.8421 3.29042 71.8979 3.50234 71.8979 3.74772C71.8979 4.02657 71.8421 4.26079 71.7415 4.46156C71.641 4.66233 71.5069 4.82963 71.3394 4.96348C71.1718 5.09732 70.9707 5.19771 70.7361 5.26463C70.5127 5.33155 70.2669 5.36501 70.0212 5.36501C69.686 5.36501 69.3621 5.30924 69.0381 5.18655C68.7141 5.06386 68.4572 4.8854 68.2449 4.64002L68.904 4.03772C69.0269 4.20503 69.1945 4.35002 69.4067 4.45041C69.619 4.55079 69.8312 4.59541 70.0323 4.59541C70.144 4.59541 70.2446 4.58425 70.3675 4.55079C70.4792 4.52848 70.5797 4.48387 70.6691 4.41695C70.7585 4.36118 70.8367 4.2831 70.8925 4.18272C70.9484 4.09349 70.9707 3.9708 70.9707 3.83695C70.9707 3.70311 70.9372 3.59157 70.8813 3.50234C70.8143 3.41311 70.7361 3.33504 70.6244 3.26811C70.5127 3.20119 70.3898 3.14542 70.2446 3.10081C70.0994 3.05619 69.9541 3.00043 69.7866 2.95581C69.6302 2.9112 69.4738 2.84427 69.3174 2.77735C69.161 2.71043 69.0269 2.6212 68.8929 2.50966C68.77 2.39812 68.6694 2.26428 68.5912 2.10813C68.513 1.95198 68.4795 1.75121 68.4795 1.50583C68.4795 1.24929 68.5354 1.02622 68.6471 0.836605C68.7588 0.646992 68.8929 0.49084 69.0716 0.379303C69.2503 0.256612 69.4514 0.167382 69.6748 0.10046C69.8983 0.0446916 70.1329 0.0112305 70.3675 0.0112305C70.6244 0.0112305 70.8925 0.0558453 71.1606 0.145075C71.4287 0.234305 71.6633 0.368149 71.8644 0.557762L71.2723 1.20468H71.2388Z" fill="#F2F2F2"/>
<path d="M71.2388 1.20468C71.1383 1.08199 71.0042 0.97045 70.8255 0.892374C70.6467 0.803144 70.468 0.769683 70.2893 0.769683C70.1776 0.769683 70.077 0.780837 69.9653 0.814298C69.8536 0.836605 69.7642 0.88122 69.6748 0.936988C69.5855 0.992757 69.5185 1.07083 69.4626 1.14891C69.4067 1.23814 69.3844 1.34968 69.3844 1.47237C69.3844 1.5839 69.4067 1.68429 69.4626 1.76236C69.5073 1.84044 69.5743 1.91852 69.6637 1.97428C69.753 2.03005 69.8536 2.08582 69.9765 2.13044C70.0994 2.17505 70.2334 2.21967 70.3786 2.26428C70.5462 2.32005 70.7138 2.37582 70.8925 2.44274C71.0712 2.50966 71.2276 2.59889 71.384 2.71043C71.5293 2.82197 71.6522 2.95581 71.7527 3.12312C71.8421 3.29042 71.8979 3.50234 71.8979 3.74772C71.8979 4.02657 71.8421 4.26079 71.7415 4.46156C71.641 4.66233 71.5069 4.82963 71.3394 4.96348C71.1718 5.09732 70.9707 5.19771 70.7361 5.26463C70.5127 5.33155 70.2669 5.36501 70.0212 5.36501C69.686 5.36501 69.3621 5.30924 69.0381 5.18655C68.7141 5.06386 68.4572 4.8854 68.2449 4.64002L68.904 4.03772C69.0269 4.20503 69.1945 4.35002 69.4067 4.45041C69.619 4.55079 69.8312 4.59541 70.0323 4.59541C70.144 4.59541 70.2446 4.58425 70.3675 4.55079C70.4792 4.52848 70.5797 4.48387 70.6691 4.41695C70.7585 4.36118 70.8367 4.2831 70.8925 4.18272C70.9484 4.09349 70.9707 3.9708 70.9707 3.83695C70.9707 3.70311 70.9372 3.59157 70.8813 3.50234C70.8143 3.41311 70.7361 3.33504 70.6244 3.26811C70.5127 3.20119 70.3898 3.14542 70.2446 3.10081C70.0994 3.05619 69.9541 3.00043 69.7866 2.95581C69.6302 2.9112 69.4738 2.84427 69.3174 2.77735C69.161 2.71043 69.0269 2.6212 68.8929 2.50966C68.77 2.39812 68.6694 2.26428 68.5912 2.10813C68.513 1.95198 68.4795 1.75121 68.4795 1.50583C68.4795 1.24929 68.5354 1.02622 68.6471 0.836605C68.7588 0.646992 68.8929 0.49084 69.0716 0.379303C69.2503 0.256612 69.4514 0.167382 69.6748 0.10046C69.8983 0.0446916 70.1329 0.0112305 70.3675 0.0112305C70.6244 0.0112305 70.8925 0.0558453 71.1606 0.145075C71.4287 0.234305 71.6633 0.368149 71.8644 0.557762L71.2723 1.20468H71.2388Z" fill="#F2F2F2" stroke="#F2F2F2" stroke-opacity="0.12549" stroke-width="0.01" stroke-miterlimit="10"/>
<path d="M74.0987 0.133789H73.1826V5.23104H74.0987V0.133789Z" fill="#F2F2F2"/>
<path d="M74.0987 0.133789H73.1826V5.23104H74.0987V0.133789Z" fill="#F2F2F2" stroke="#F2F2F2" stroke-opacity="0.12549" stroke-width="0.01" stroke-miterlimit="10"/>
<path d="M76.6792 0.925703H75.1041V0.133789H79.1816V0.925703H77.5952V5.23104H76.6792V0.925703Z" fill="#F2F2F2"/>
<path d="M76.6792 0.925703H75.1041V0.133789H79.1816V0.925703H77.5952V5.23104H76.6792V0.925703Z" fill="#F2F2F2" stroke="#F2F2F2" stroke-opacity="0.12549" stroke-width="0.01" stroke-miterlimit="10"/>
<path d="M81.3599 0.133789H82.1531L84.3761 5.23104H83.326L82.8457 4.07105H80.6114L80.1423 5.23104H79.1145L81.3599 0.133789ZM82.5217 3.29029L81.7286 1.2157L80.9242 3.29029H82.5217Z" fill="#F2F2F2"/>
<path d="M81.3599 0.133789H82.1531L84.3761 5.23104H83.326L82.8457 4.07105H80.6114L80.1423 5.23104H79.1145L81.3599 0.133789ZM82.5217 3.29029L81.7286 1.2157L80.9242 3.29029H82.5217Z" fill="#F2F2F2" stroke="#F2F2F2" stroke-opacity="0.12549" stroke-width="0.01" stroke-miterlimit="10"/>
<path d="M85.8843 0.925703H84.3091V0.133789H88.3866V0.925703H86.8003V5.23104H85.8843V0.925703Z" fill="#F2F2F2"/>
<path d="M85.8843 0.925703H84.3091V0.133789H88.3866V0.925703H86.8003V5.23104H85.8843V0.925703Z" fill="#F2F2F2" stroke="#F2F2F2" stroke-opacity="0.12549" stroke-width="0.01" stroke-miterlimit="10"/>
</svg>
