<svg width="633" height="95" viewBox="0 0 633 95" fill="none" xmlns="http://www.w3.org/2000/svg">
<g clip-path="url(#clip0_93_204)">
<path d="M530.762 94.6056C539.967 86.7152 552.899 79.0439 560 76.2823C558.904 75.5809 557.195 74.5727 555.266 73.4768C546.104 76.5015 535.409 83.2083 525.852 90.7919C527.474 92.0193 529.184 93.2905 530.762 94.6056Z" fill="#606060"/>
<path d="M526.554 73.1698C525.195 72.5123 523.704 71.8986 522.565 71.3726C519.102 73.0821 514.587 75.6684 508.888 79.7452C510.115 80.4027 511.43 81.1917 512.833 81.9808C517.217 78.7369 521.644 75.6684 526.554 73.1698Z" fill="#606060"/>
<path d="M534.751 69.3999C533.085 68.4794 527.299 66.3314 523.31 65.4109C522.126 65.8492 520.461 66.5068 519.321 66.989C520.767 67.3835 526.159 68.8301 530.762 71.1534C531.946 70.5835 533.611 69.8821 534.751 69.3999Z" fill="#606060"/>
<path d="M515.157 68.8301C510.028 71.1972 504.636 74.441 501.699 76.326C502.751 76.8082 503.803 77.2027 505.25 77.9041C511.737 73.5205 516.822 70.8465 518.839 69.9698C517.392 69.4438 516.033 69.0931 515.157 68.8301Z" fill="#606060"/>
<path d="M538.609 68.0411C539.792 67.6466 541.151 67.2959 542.335 66.9452C538.915 65.4986 534.62 63.9644 530.762 63C530.148 63.1753 528.307 63.6575 527.036 64.0521C528.351 64.4466 532.691 65.4548 538.609 68.0411ZM516.998 84.5233C518.4 85.3562 519.891 86.4959 521.337 87.4603C530.937 80.0082 540.406 74.2658 550.795 71.0219C549.348 70.2767 548.077 69.6192 546.455 68.8301C540.23 70.4082 529.578 74.6603 516.998 84.5233Z" fill="#606060"/>
<path d="M244.384 92.3261H251.398C254.948 92.3261 256.614 90.485 256.614 87.8987C256.614 85.7945 255.518 84.3918 253.239 83.9534C255.255 83.4713 256.176 82.2439 256.176 80.4466C256.176 78.1671 254.51 76.3261 250.959 76.3261H244.428V92.3261H244.384ZM250.477 85.5315C251.792 85.5315 252.713 86.1891 252.713 87.5041C252.713 88.9069 251.836 89.4767 250.477 89.4767H248.198V85.4877H250.477V85.5315ZM250.039 79.1315C251.354 79.1315 252.274 79.7014 252.274 81.0165C252.274 82.3315 251.398 82.9014 250.039 82.9014H248.198V79.1315H250.039ZM270.773 76.2822H266.828L260.822 92.3261H264.811L265.907 88.9945H271.693L272.789 92.3261H276.822L270.773 76.2822ZM268.8 80.1397L270.685 86.0576H266.828L268.8 80.1397ZM296.811 76.2822H293.173V87.0219L286.335 76.2822H282.258V92.3261H285.896V81.6302L292.735 92.3261H296.811V76.2822ZM313.6 92.3261L308.34 84.1726V92.3261H304.439V76.2822H308.34V83.9973L313.337 76.2822H317.677L312.417 83.9973L318.159 92.3261H313.6ZM331.967 84.3041C331.967 87.5041 333.896 89.4767 336.395 89.4767C338.893 89.4767 340.822 87.5041 340.822 84.3041C340.822 81.1041 338.893 79.1315 336.395 79.1315C333.896 79.1315 331.967 81.1041 331.967 84.3041ZM327.847 84.3041C327.891 79.6137 331.178 75.9315 336.395 75.9315C341.611 75.9315 344.899 79.6137 344.943 84.3041C344.899 88.9945 341.611 92.6767 336.395 92.6767C331.178 92.6767 327.891 88.9945 327.847 84.3041ZM350.291 92.3261H354.192V86.0137H359.277V82.9452H354.192V79.3507H360.329L361.03 76.2822H350.291V92.3261ZM379.222 76.2822H375.277L369.272 92.3261H373.261L374.357 88.9945H380.143L381.239 92.3261H385.272L379.222 76.2822ZM377.25 80.1397L379.135 86.0576H375.277L377.25 80.1397ZM408.417 76.2822H403.858L399.693 84.9617L395.529 76.2822H390.97V92.3261H394.477V81.5863L399.65 92.3261L404.822 81.5863V92.3261H408.461L408.417 76.2822ZM416 92.3261H426.959V89.2576H419.902V85.663H425.469V82.6822H419.902V79.3507H426.346L427.047 76.2822H416V92.3261ZM441.82 92.3261H446.072L442.083 85.5315C444.274 84.9178 445.326 83.3836 445.326 81.148C445.326 78.2548 443.573 76.3261 439.628 76.3261H433.447V92.3699H437.261V86.0576H438.313L441.82 92.3261ZM438.883 79.263C440.504 79.263 441.337 79.9644 441.337 81.3233C441.337 82.6822 440.504 83.3836 438.883 83.3836H437.217V79.263H438.883ZM451.902 92.3261H455.803V76.3261H451.902V92.3261ZM475.003 88.0302C473.513 89.0822 472.198 89.4329 470.839 89.4329C467.858 89.4329 465.754 87.3726 465.754 84.3041C465.754 81.2356 467.814 79.1754 470.707 79.1754C472.022 79.1754 473.337 79.5261 474.784 80.5781V76.9398C473.469 76.1945 471.935 75.8877 470.225 75.8877C464.921 75.8877 461.589 79.5699 461.546 84.2603C461.589 88.9945 464.833 92.6329 470.225 92.6329C472.022 92.6329 473.556 92.3261 474.959 91.5808V88.0302H475.003ZM489.293 76.2822H485.348L479.343 92.3261H483.332L484.428 88.9945H490.214L491.31 92.3261H495.343L489.293 76.2822ZM487.321 80.1397L489.206 86.0576H485.348L487.321 80.1397Z" fill="#606060"/>
</g>
<g clip-path="url(#clip1_93_204)">
<path fill-rule="evenodd" clip-rule="evenodd" d="M20.8937 80.7293C25.0243 81.7087 34.4261 83.6026 39.1034 84.3346L39.1845 84.3473L39.2656 84.3346C43.9605 83.5992 53.3628 81.7059 57.4818 80.7292C60.6789 79.9687 61.0534 78.9251 61.4401 77.1462L61.4551 77.0767C61.5738 76.528 62.5981 71.0084 62.9928 68.8531L67.1387 63H11.2365L15.3823 68.8531C15.7988 71.1268 16.8015 76.5327 16.9202 77.0773L16.9351 77.1462C17.3218 78.9251 17.6963 79.9687 20.8937 80.7293ZM62.498 68.6446L66.1251 63.5241H12.2502L15.8771 68.6446C16.2749 70.8192 17.3144 76.4242 17.4324 76.9658C17.4374 76.989 17.4424 77.012 17.4474 77.0349C17.7793 78.5617 17.9828 79.4979 21.0147 80.2193C25.1118 81.1907 34.4787 83.0802 39.1845 83.8168C43.8921 83.0793 53.2634 81.1907 57.3605 80.2193C60.3926 79.4979 60.5961 78.5616 60.9279 77.0346C60.9328 77.0118 60.9378 76.9889 60.9428 76.9658C61.0608 76.4206 62.1002 70.8192 62.498 68.6446Z" fill="#606060"/>
<path d="M41.3179 81.2154C42.2156 81.0565 43.2333 80.8763 43.7071 80.7858C44.0267 80.7247 44.3353 80.6658 44.633 80.609C51.3967 79.3175 52.6152 79.0849 53.2206 78.3726H40.0202V81.4464C40.3309 81.3902 40.8048 81.3063 41.3179 81.2154Z" fill="#606060"/>
<path fill-rule="evenodd" clip-rule="evenodd" d="M63.265 64.4868H15.1139L17.974 68.5705C18.2205 70.0349 18.4347 71.3189 18.6169 72.412C18.9633 74.4892 19.1946 75.8765 19.3147 76.5002C19.3295 76.5773 19.3437 76.6524 19.3576 76.7255C19.6417 78.2223 19.7688 78.892 21.4 79.3317C24.8016 80.1361 34.6602 82.1632 39.1908 82.847C43.7214 82.1632 53.5808 80.1388 56.9843 79.3317C58.6153 78.892 58.7424 78.2223 59.0265 76.7253L59.027 76.7227L59.0277 76.719C59.0412 76.648 59.055 76.5751 59.0694 76.5002C59.1886 75.8658 59.4268 74.4415 59.7841 72.3048L59.7843 72.304L59.7849 72.3001C59.9636 71.2316 60.172 69.9852 60.4102 68.5705L63.265 64.4868ZM24.0214 72.732H19.3969L19.0395 70.6128H38.8958V72.732H38.3596V71.1097H23.8533L24.0214 72.732ZM38.8904 70.1292H18.959L18.7006 68.5759H38.8904V70.1292ZM31.4255 75.3409H38.8931V74.2282H31.4282L31.4255 75.3409ZM23.2295 68.0816H18.5058L17.0426 65.9901H38.8967V68.0753H38.3605V66.5273H22.3357L23.2295 68.0816ZM47.0177 65.9901H39.484V69.1121H47.0212L47.0177 65.9901ZM21.5751 78.6354C20.8216 78.4308 20.5946 78.2144 20.4722 78.0285H20.4704C20.4305 77.9682 20.3963 77.9041 20.3685 77.8373H30.9035V78.9393H22.9069L22.7406 78.9023C22.2636 78.7961 21.9027 78.7158 21.5751 78.6354ZM20.0154 76.3446H30.9035V73.2316H19.4801L20.0154 76.3446ZM38.8976 82.0738C36.9402 81.7672 34.2141 81.2604 31.4255 80.7117V76.8497H38.8976V82.0738ZM47.5343 72.732H58.9819L59.5048 69.609H47.5343V72.732ZM47.5343 68.0914V66.9831H60.6192L59.847 68.0869L47.5343 68.0914ZM39.4839 75.3409H40.0201V73.7687H54.2654C54.2466 73.9216 54.1135 74.9754 54.0446 75.3453H58.5431L58.9006 73.2315H39.4839V75.3409ZM58.1642 77.377H39.4839V75.8298H58.4661L58.1642 77.377ZM47.0212 70.6137H39.4839V71.7282H47.0212V70.6137ZM39.4839 82.0721V77.8373H58.014C57.9879 77.9046 57.9542 77.9687 57.9138 78.0286C57.7914 78.2144 57.5671 78.4433 56.8091 78.6319C53.4538 79.4667 44.2327 81.2954 39.4839 82.0721Z" fill="#606060"/>
<path d="M2.22915 94.5645C1.50685 94.2741 0.954983 93.8713 0.57342 93.3561C0.191701 92.8411 0.0010376 92.2525 0.0010376 91.5906C0.0010376 90.9287 0.191701 90.3401 0.57342 89.825C0.954983 89.3098 1.50685 88.9071 2.22915 88.6167C2.95134 88.3264 3.80445 88.1812 4.78842 88.1812C6.46615 88.1812 7.87896 88.5871 9.02702 89.3988V89.6236L8.57288 90.1762C7.48801 89.3833 6.22652 88.9867 4.78842 88.9867C4.00623 88.9867 3.32812 89.0897 2.75425 89.2958C2.18023 89.5019 1.73866 89.8015 1.42967 90.195C1.12056 90.5883 0.96606 91.0536 0.96606 91.5906C0.96606 92.1277 1.12056 92.5928 1.42967 92.9863C1.73866 93.3796 2.18023 93.6794 2.75425 93.8854C3.32812 94.0914 4.00623 94.1945 4.78842 94.1945C5.50747 94.1945 6.16812 94.0947 6.77056 93.8948C7.37281 93.695 7.97048 93.3922 8.56349 92.9863L9.02702 93.5389V93.7636C8.45937 94.1633 7.83328 94.4693 7.14899 94.6815C6.46454 94.8938 5.67778 95 4.78842 95C3.80445 95 2.95134 94.8549 2.22915 94.5645Z" fill="#606060"/>
<path d="M15.6783 89.0991L13.5494 92.3961H18.0341L15.9053 89.0991H15.6783ZM15.1863 88.3122H16.3973L20.617 94.644V94.8689H19.633L18.5544 93.2017H13.0291L11.9505 94.8689H10.9665V94.644L15.1863 88.3122Z" fill="#606060"/>
<path d="M26.4735 94.0633C27.8421 94.0633 28.853 93.8667 29.5058 93.4732C30.1586 93.0799 30.485 92.4523 30.485 91.5906C30.485 90.7289 30.1586 90.1013 29.5058 89.7079C28.853 89.3145 27.8421 89.1178 26.4735 89.1178H23.9189V94.0633H26.4735ZM22.9728 94.8689V88.3122H26.6627C28.2459 88.3122 29.4396 88.5871 30.2438 89.1365C31.048 89.6861 31.4501 90.504 31.4501 91.5906C31.4501 92.677 31.048 93.4952 30.2438 94.0446C29.4396 94.5942 28.2459 94.8689 26.6627 94.8689H22.9728Z" fill="#606060"/>
<path d="M35.0926 94.8689H34.1465V88.3123H35.0926V94.8689Z" fill="#606060"/>
<path d="M39.1135 88.3122V94.0634H45.6796L45.3579 94.8689H38.1674V88.3122H39.1135Z" fill="#606060"/>
<path d="M49.4357 88.3122V94.0634H56.0017L55.68 94.8689H48.4896V88.3122H49.4357Z" fill="#606060"/>
<path d="M62.8043 89.0991L60.6755 92.3961H65.1601L63.0313 89.0991H62.8043ZM62.3124 88.3122H63.5234L67.7431 94.644V94.8689H66.759L65.6805 93.2017H60.1551L59.0766 94.8689H58.0926V94.644L62.3124 88.3122Z" fill="#606060"/>
<path d="M71.3809 94.5645C70.6586 94.274 70.1067 93.8713 69.7252 93.3561C69.3435 92.8411 69.1527 92.2525 69.1527 91.5906C69.1527 90.9287 69.3435 90.3401 69.7252 89.825C70.1067 89.3098 70.6586 88.9071 71.3809 88.6167C72.103 88.3264 72.9561 88.1812 73.9402 88.1812C75.6178 88.1812 77.0307 88.5871 78.1788 89.3987V89.6236L77.7246 90.1762C76.6397 89.3833 75.3783 88.9867 73.9402 88.9867C73.1579 88.9867 72.4799 89.0897 71.906 89.2958C71.332 89.5018 70.8904 89.8015 70.5814 90.195C70.2723 90.5883 70.1178 91.0536 70.1178 91.5906C70.1178 92.1277 70.2723 92.5928 70.5814 92.9862C70.8904 93.3796 71.332 93.6793 71.906 93.8854C72.4799 94.0914 73.1579 94.1945 73.9402 94.1945C74.6592 94.1945 75.3199 94.0947 75.9223 93.8947C76.5245 93.695 77.1222 93.3922 77.7152 92.9862L78.1788 93.5389V93.7636C77.6111 94.1633 76.985 94.4693 76.3007 94.6815C75.6162 94.8937 74.8295 95 73.9402 95C72.9561 95 72.103 94.8548 71.3809 94.5645Z" fill="#606060"/>
</g>
<g clip-path="url(#clip2_93_204)">
<path d="M281.323 2.45619C281.323 2.45619 279.41 3.21746 277.186 5.6688C274.962 8.12013 273.667 10.8766 274.625 11.6097C274.993 11.8883 275.843 11.9414 277.383 10.5482C278.805 9.31365 279.922 7.76602 280.644 6.02704C281.639 3.60059 281.323 2.48604 281.323 2.45951M293.495 6.86627C291.023 5.59914 289.217 4.04674 287.338 3.08644C285.545 2.16595 284.386 1.78116 282.936 1.97521C282.734 2.01126 282.535 2.06113 282.339 2.12448C282.339 2.12448 283.086 4.67367 280.115 8.95604C277.106 13.2981 274.377 13.2683 273.6 12.0758C272.788 10.8169 273.837 8.25115 275.591 5.96733C277.427 3.57903 280.651 1.59872 280.651 1.59872C280.651 1.59872 279.622 0.970133 277.098 2.40146C274.635 3.79132 270.396 7.10841 266.462 12.7027C262.528 18.297 261.748 21.3752 261.184 23.7984C260.621 26.2215 261.133 28.8171 263.82 28.8171C266.507 28.8171 269.635 24.7189 270.517 23.2942C272.157 20.6405 273.227 16.5704 270.995 17.1294C269.895 17.4047 269.004 18.622 268.442 19.7946C268.087 20.5478 267.816 21.3375 267.633 22.1498C266.853 22.4713 266.12 22.8976 265.455 23.4169C264.715 23.9649 264.024 24.5752 263.389 25.2413C263.389 25.2413 263.399 23.3041 264.943 20.1695C266.487 17.0348 269.321 15.6035 270.927 15.4691C272.373 15.353 274.255 16.5804 272.66 21.1082C271.064 25.636 266.357 31.1408 261.413 31.2088C256.851 31.2718 253.865 25.4486 260.216 15.2867C267.245 4.06 275.489 0.615204 278.166 0.23208C280.843 -0.151045 281.714 1.02984 281.714 1.02984C283.325 0.368752 285.066 0.0818111 286.804 0.190616C290.073 0.411203 292.601 2.72488 295.938 4.35025C295.07 5.17952 294.243 6.05026 293.496 6.86627M308.181 3.08644C305.915 4.53933 302.781 5.85621 299.769 5.57426C299.006 6.36207 298.19 7.27427 297.372 8.2694C302.595 9.30267 307.171 6.06685 309.604 3.312C310.491 2.32153 311.253 1.22588 311.873 0.0496394C310.765 1.2034 309.525 2.22269 308.179 3.08644M301.225 17.8011C301.265 17.7322 301.297 17.6594 301.321 17.5838C301.306 17.4642 301.25 17.3535 301.162 17.2702C301.075 17.1869 300.962 17.136 300.842 17.126C300.344 17.1028 299.666 17.1974 297.886 19.1677C296.41 20.7948 295.139 22.5974 294.103 24.5348C293.085 26.3957 292.672 27.7822 293.257 28.1404C293.448 28.239 293.668 28.2615 293.874 28.2035C294.271 28.1089 294.72 27.7374 295.404 26.9463C295.724 26.5748 296.079 26.049 296.503 25.4669C297.681 23.8647 300.64 18.8211 301.225 17.8011ZM282.739 19.9439C283.036 19.1677 283.414 17.6435 282.628 17.0448C281.784 16.4095 279.631 17.9006 279.619 19.4298C279.604 20.9954 281.135 21.7036 281.502 21.8031C281.711 21.8595 281.784 21.8512 281.885 21.6837C282.209 21.1243 282.495 20.5429 282.739 19.9439ZM281.11 22.7916C280.577 22.5453 280.079 22.2278 279.631 21.8479C279.181 21.4708 278.806 21.0136 278.523 20.4995C278.493 20.4498 278.463 20.4879 278.43 20.5327C278.397 20.5775 278.264 20.6985 277.116 22.3803C275.969 24.0621 274.206 27.5467 275.801 28.1404C276.823 28.5203 278.523 26.7307 279.45 25.5448C280.082 24.7171 280.654 23.8459 281.163 22.9376C281.211 22.8364 281.163 22.8132 281.112 22.7916M299.21 26.8169C298.777 27.5102 298.283 28.8404 299.707 28.0127C301.451 27.006 303.933 23.2394 303.933 23.2394H305.06C304.035 24.815 302.894 26.3119 301.646 27.7175C299.88 29.6746 297.726 31.4526 296.208 31.2768C294.435 31.0694 294.991 28.7425 294.991 28.7425C294.991 28.7425 292.455 31.4426 290.7 31.2486C288.33 30.9865 289.053 28.0575 289.053 28.0575C289.053 28.0575 286.373 31.3464 284.547 31.2452C281.684 31.0794 282.404 27.5964 283.2 25.1435C283.626 23.8315 284.021 22.8016 284.021 22.8016C284.021 22.8016 283.737 22.8762 283.127 22.9674C282.809 23.0122 282.228 23.0454 282.228 23.0454C282.228 23.0454 281.036 25.1484 280.082 26.4122C279.128 27.6761 275.075 32.0331 272.69 31.1607C270.484 30.3546 271.214 26.9778 272.497 24.2943C274.372 20.3818 279.642 14.7609 282.683 15.504C285.834 16.2686 282.754 22.0187 282.754 22.0187C282.754 22.0187 282.754 22.0403 282.787 22.0552C282.85 22.0785 283.014 22.0967 283.394 22.0221C283.788 21.9418 284.173 21.8269 284.547 21.6787C284.547 21.6787 287.715 15.0446 291.214 10.7041C294.714 6.36373 301.694 -1.11134 304.434 0.696473C305.098 1.14096 304.799 2.6718 303.897 4.52937C303.491 4.66138 303.078 4.7721 302.66 4.86108C303.263 3.76478 303.663 2.84097 303.783 2.1958C304.196 -0.0465565 298.959 4.68362 295.218 9.76541C292.964 12.829 290.962 16.0699 289.23 19.4563C289.906 19.0441 290.552 18.5834 291.161 18.078C292.83 16.6942 294.416 15.2133 295.911 13.6431C297.351 12.1693 298.701 10.6108 299.955 8.97594C300.353 8.95667 300.75 8.9157 301.144 8.85321C299.777 10.7085 298.286 12.4694 296.682 14.1241C295.19 15.6333 293.574 17.2571 292.171 18.4363C290.918 19.5021 289.596 20.4844 288.214 21.3769C288.214 21.3769 284.941 27.9763 286.721 28.3992C287.768 28.6513 289.834 25.4685 289.834 25.4685C289.834 25.4685 292.531 21.3537 294.156 19.4978C296.374 16.9768 298.283 15.5172 300.19 15.4907C301.301 15.4708 301.956 16.6517 301.956 16.6517L302.479 15.8423H305.697C305.697 15.8423 299.688 26.0391 299.207 26.807M308.179 3.08644C305.914 4.53933 302.779 5.85621 299.767 5.57426C299.004 6.36207 298.188 7.27427 297.371 8.2694C302.593 9.30267 307.169 6.06685 309.602 3.312C310.49 2.32162 311.253 1.22597 311.873 0.0496394C310.765 1.2034 309.525 2.22269 308.179 3.08644ZM262.992 8.08862H259.932L258.202 10.8833H261.262L262.992 8.08862ZM248.503 17.7662C249.805 15.9816 253.398 9.72726 253.398 9.72726C253.382 9.60779 253.327 9.49715 253.24 9.41383C253.153 9.33051 253.04 9.27956 252.92 9.2695C252.422 9.24628 251.593 9.41379 249.946 11.4754C248.299 13.5369 247.02 15.1772 246.088 16.8839C245.067 18.7464 244.621 20.06 245.208 20.4166C245.398 20.512 245.617 20.5345 245.823 20.4796C246.204 20.3834 246.704 20.0003 247.389 19.2125C247.71 18.8443 248.075 18.3484 248.503 17.7662ZM232.084 9.30765C231.238 8.66911 229.087 10.1635 229.075 11.6893C229.062 13.2566 231.01 13.736 231.263 13.7476C231.337 13.7537 231.411 13.7382 231.477 13.7028C231.522 13.6766 231.557 13.6372 231.579 13.59C231.808 13.1398 232.014 12.6781 232.196 12.2068C232.493 11.4306 232.87 9.90638 232.084 9.30765ZM230.808 14.7029C230.225 14.5207 229.667 14.2643 229.15 13.94C228.648 13.6128 228.24 13.1607 227.965 12.6281C227.936 12.5783 227.902 12.6164 227.873 12.6612C227.843 12.706 227.67 12.9216 226.519 14.61C225.368 16.2984 223.663 19.7515 225.26 20.3453C226.279 20.7317 227.999 18.9272 228.932 17.7463C229.631 16.8183 230.277 15.8515 230.866 14.8505C230.904 14.7493 230.866 14.7261 230.81 14.7079M255.801 15.7428H256.922C256.922 15.7428 251.304 23.8697 248.132 23.4915C246.36 23.2842 246.886 21.0983 246.886 21.0983C246.886 21.0983 244.398 24.0107 242.113 23.4202C240.04 22.8878 241.378 19.4397 241.378 19.4397C241.143 19.5342 236.656 24.5912 233.503 23.3788C230.204 22.105 231.918 17.8707 232.545 16.597C233.077 15.5239 233.666 14.479 233.666 14.479C233.666 14.479 233.16 14.6216 232.837 14.6946C232.513 14.7676 232.045 14.8605 232.045 14.8605C232.045 14.8605 230.485 17.3964 229.531 18.6619C228.577 19.9273 224.524 24.276 222.136 23.4103C219.747 22.5445 220.339 19.2025 221.681 16.5489C223.857 12.2449 229.02 6.95583 232.13 7.75856C235.271 8.55964 232.671 13.6547 232.671 13.6547C232.671 13.6547 233.296 13.736 234.794 12.7143C236.95 11.2432 239.796 7.28588 242.877 7.75027C244.33 7.9692 245.684 9.4536 243.833 12.2731C243.242 13.1787 242.252 13.9881 241.494 13.187C241.021 12.6894 241.434 11.7822 241.93 11.1619C242.123 10.909 242.376 10.7075 242.665 10.5751C242.954 10.4426 243.271 10.3833 243.589 10.4023C243.589 10.4023 244.098 9.24131 242.803 9.25789C241.755 9.27779 239.101 11.7208 237.603 14.1888C236.23 16.4543 234.148 20.3138 236.238 21.1546C238.154 21.9275 241.799 17.6004 243.488 15.3331C245.176 13.0659 249.024 7.92774 252.251 7.72208C253.363 7.6491 254.024 8.66247 254.024 8.66247L254.398 8.07203H257.625C257.625 8.07203 251.547 18.2157 251.072 18.9836C250.699 19.584 250.203 20.9341 251.57 20.1778C252.936 19.4215 255.801 15.7428 255.801 15.7428ZM254.044 31.9966C251.668 30.3515 248.822 29.5211 245.934 29.6298C245.152 29.6511 244.387 29.8564 243.699 30.229C243.012 30.6016 242.421 31.131 241.977 31.7743C240.746 29.6265 238.313 28.308 234.551 28.3378C228.473 28.4075 222.444 31.2104 217.667 31.2071C213.09 31.2071 209.751 28.3295 209.859 23.2195C210.06 14.2518 217.638 6.17631 223.293 2.54244C226.554 0.454325 229.281 -0.165972 231.064 0.0347125C232.364 0.179006 233.928 1.68165 232.941 3.89581C231.491 7.13163 229.49 6.86627 229.564 5.31884C229.606 4.3121 230.276 3.67854 230.78 3.32859C231.1 3.108 231.666 3.04497 231.961 3.03834C232.248 2.79619 232.458 1.02486 230.136 1.60701C227.814 2.18916 224.995 4.47796 222.318 7.43515C219.641 10.3923 215.473 15.9816 214.443 21.8512C213.962 24.5729 214.277 29.5369 220.731 29.4806C226.204 29.4358 234.271 25.8317 241.685 25.9064C244.562 25.9346 247.067 26.7108 249.019 27.9149C250.936 29.0958 253.235 30.8207 254.051 31.9982" fill="#606060"/>
</g>
<g clip-path="url(#clip3_93_204)">
<path fill-rule="evenodd" clip-rule="evenodd" d="M181.384 78.52C181.384 69.604 188.372 63 197.384 63C206.396 63 213.384 69.608 213.384 78.524C213.384 87.44 206.396 94.044 197.384 94.044C195.764 94.044 194.212 93.828 192.752 93.428C192.468 93.352 192.164 93.372 191.896 93.492L188.72 94.892C188.528 94.9766 188.318 95.0128 188.109 94.9974C187.9 94.982 187.698 94.9155 187.521 94.8037C187.343 94.6919 187.196 94.5383 187.092 94.3563C186.988 94.1743 186.93 93.9696 186.924 93.76L186.836 90.912C186.828 90.56 186.668 90.232 186.408 90C183.296 87.216 181.384 83.184 181.384 78.52ZM192.476 75.604L187.776 83.06C187.324 83.776 188.204 84.58 188.876 84.068L193.924 80.236C194.09 80.1099 194.293 80.0413 194.501 80.0405C194.71 80.0398 194.913 80.107 195.08 80.232L198.82 83.036C199.085 83.2353 199.389 83.3773 199.712 83.4533C200.035 83.5292 200.37 83.5374 200.696 83.4772C201.022 83.4171 201.333 83.2899 201.607 83.1039C201.882 82.9178 202.115 82.6768 202.292 82.396L206.996 74.944C207.444 74.228 206.564 73.42 205.892 73.932L200.844 77.764C200.678 77.8902 200.475 77.9588 200.267 77.9595C200.058 77.9603 199.855 77.893 199.688 77.768L195.948 74.964C195.683 74.7648 195.379 74.6228 195.056 74.5468C194.733 74.4709 194.398 74.4627 194.072 74.5229C193.745 74.583 193.435 74.7101 193.16 74.8962C192.886 75.0823 192.653 75.3233 192.476 75.604Z" fill="#606060"/>
</g>
<g clip-path="url(#clip4_93_204)">
<path d="M601.585 63H593.528C593.514 67.3192 593.53 79.0204 593.526 79.3073H601.585L601.585 63Z" fill="#606060"/>
<path d="M617.025 63H608.967C608.954 67.3192 608.969 79.0204 608.965 79.3073H617.025L617.025 63Z" fill="#606060"/>
<path d="M632.509 63H624.452C624.438 67.3192 624.453 79.0204 624.45 79.3073H632.509L632.509 63Z" fill="#606060"/>
<path d="M602.429 82.424C602.464 82.2645 602.606 82.1509 602.769 82.1509H608.063C608.269 82.1509 608.423 82.3419 608.378 82.5434L608.198 83.3569C608.168 83.4949 608.053 83.5932 607.913 83.6084C607.888 83.6109 607.873 83.6125 607.873 83.6125C607.474 83.6656 606.754 83.7954 606.163 84.2572L601.763 87.917L601.762 87.9186L605.149 92.5019C605.805 93.3457 606.129 93.4987 606.789 93.5089C607.006 93.513 607.161 93.716 607.114 93.9272L606.929 94.7512C606.897 94.8967 606.768 95 606.619 95H603.982C601.061 95.0004 600.255 93.7194 597.822 89.2719L597.82 89.2721L597.11 92.5165C597.002 93.0207 597.424 93.2877 597.734 93.4135C597.747 93.4191 597.761 93.424 597.773 93.429C597.921 93.487 598.005 93.644 597.97 93.7987L597.759 94.75C597.727 94.8959 597.597 95 597.448 95H591.336C591.121 95 590.962 94.8011 591.008 94.5913L591.188 93.7784C591.221 93.6307 591.344 93.5204 591.494 93.5041C591.5 93.503 591.506 93.5025 591.512 93.502C592.072 93.4374 592.659 93.0834 593.022 91.3506L594.408 85.0057C594.586 84.1605 594.163 83.839 593.799 83.6962C593.796 83.6948 593.774 83.6874 593.741 83.676C593.574 83.619 593.476 83.4453 593.514 83.2729L593.703 82.4253C593.738 82.265 593.88 82.151 594.044 82.151H599.857C600.061 82.151 600.212 82.3391 600.168 82.5377L599.983 83.3741C599.956 83.4963 599.865 83.5948 599.745 83.6319C599.731 83.6363 599.716 83.6409 599.701 83.6455C599.429 83.734 598.999 83.957 598.867 84.4987L598.092 88.0297C598.092 88.0311 598.094 88.0311 598.094 88.0311L602.603 84.2838C602.874 84.0608 602.805 83.7627 602.495 83.6433C602.495 83.6433 602.494 83.6431 602.493 83.6427C602.316 83.5893 602.211 83.4091 602.251 83.2292L602.429 82.424Z" fill="#606060"/>
<path d="M618.596 85.9483C618.404 85.9483 618.254 85.7811 618.275 85.5899C618.279 85.5575 618.28 85.5469 618.28 85.5469C618.332 84.743 618.057 84.2716 617.154 84.2716L614.361 84.2747L613.614 87.6778L617.613 87.678C617.818 87.678 617.971 87.8684 617.927 88.0692L617.537 89.8241C617.505 89.9713 617.374 90.0757 617.224 90.0757H613.083C613.083 90.0757 612.623 92.1607 612.607 92.2507C612.453 92.9237 612.912 93.2733 613.221 93.4234C613.237 93.4309 613.252 93.4383 613.268 93.4455C613.401 93.5046 613.473 93.6484 613.442 93.79L613.229 94.7492C613.197 94.8955 613.067 94.9999 612.917 94.9999H608.048C607.843 94.9999 607.691 94.8108 607.735 94.6114L609.857 85.0016C610.073 84.1537 609.577 83.8088 609.22 83.6729C609.208 83.6685 609.196 83.6644 609.184 83.6598C609.025 83.6032 608.933 83.4368 608.969 83.2717L609.157 82.4258C609.192 82.2653 609.335 82.1509 609.499 82.1509H620.325C620.531 82.1509 620.683 82.3413 620.639 82.5419L619.939 85.6972C619.906 85.8439 619.776 85.9483 619.626 85.9483L618.596 85.9483Z" fill="#606060"/>
<path d="M632.241 82.594C632.429 82.6455 632.543 82.8362 632.5 83.0269L631.833 86.0299C631.801 86.1731 631.674 86.2749 631.528 86.2749H630.578C630.399 86.2749 630.256 86.1244 630.266 85.9455C630.268 85.9064 630.268 85.8906 630.268 85.8896C630.314 84.9106 629.696 84.1785 628.296 84.1787C625.97 84.1791 624.278 86.088 624.056 88.5958C623.827 91.1853 625.637 92.69 628.143 92.6897C629.427 92.6895 630.444 92.4416 631.015 92.261C631.241 92.1895 631.462 92.3856 631.417 92.6191L631.123 94.1707C631.098 94.3031 631.002 94.4109 630.873 94.4518C630.36 94.6152 628.918 94.9994 626.711 94.9997C621.468 95.0008 619.341 91.9848 619.671 88.9105C619.963 86.1728 621.775 82.14 628.917 82.1387C630.285 82.1385 631.379 82.3576 632.241 82.594Z" fill="#606060"/>
</g>
<g clip-path="url(#clip5_93_204)">
<path d="M96.2178 29.847H119.041V27.0593H100.13V18.1389H114.334V15.3183H100.13V7.09984H119.041V4.32227H96.2178V29.847Z" fill="#606060"/>
<path d="M108.078 0.196045L104.988 3.66735L114.688 0.196045H108.078Z" fill="#606060"/>
<path d="M157.354 27.0593V4.32227H153.787V29.847H176.859V27.0593H157.354Z" fill="#606060"/>
<path d="M133.829 4.32227L120.85 29.847H125.237L128.558 23.2404H144.124L147.472 29.847H151.814L138.825 4.32227H133.829ZM130.201 20.0411L136.316 7.84928L142.504 20.0411H130.201Z" fill="#606060"/>
<path d="M83.8334 19.1738C89.681 17.6134 90.2492 13.2625 90.2196 11.707C89.8705 7.14715 86.7982 4.32227 81.2778 4.32227H65.1902V29.847H68.8576V19.1397H79.331L87.0361 29.847H91.6585C91.6585 29.847 86.1136 22.6409 83.8334 19.1738ZM80.7771 16.1239H68.8576V7.34346H81.1925C84.0324 7.34346 85.6298 8.66924 86.2053 10.3534C86.586 11.5078 86.3419 13.0233 85.7121 14.055C84.6812 15.7608 82.723 16.1239 80.7771 16.1239Z" fill="#606060"/>
<path d="M43.151 0C32.7985 0 25.7425 7.29919 25.7425 16.1337C25.7425 25.4343 33.5369 32 43.151 32C52.7586 32 60.5499 25.5281 60.5499 16.1337C60.5499 7.29919 53.4066 0 43.151 0ZM43.0267 28.8316C35.8644 28.8316 29.963 23.0759 29.963 16.1424C29.963 9.21834 35.5858 3.187 43.3044 3.187C50.8317 3.187 56.365 9.21834 56.365 16.1424C56.365 23.0757 50.186 28.8316 43.0267 28.8316Z" fill="#606060"/>
<path d="M16.506 13.352H19.1523L23.9556 4.32227H20.0903L16.506 13.352Z" fill="#606060"/>
<path d="M3.56924 27.0593V4.32227H0V29.847H23.071V27.0593H3.56924Z" fill="#606060"/>
</g>
<g clip-path="url(#clip6_93_204)">
<path d="M116.648 94.93V92.8063C116.648 91.9939 116.153 91.462 115.304 91.462C114.879 91.462 114.417 91.6022 114.099 92.064C113.852 91.6764 113.497 91.462 112.965 91.462C112.611 91.462 112.256 91.5692 111.976 91.9568V91.5321H111.233V94.93H111.976V93.0537C111.976 92.4517 112.293 92.1671 112.788 92.1671C113.283 92.1671 113.53 92.4847 113.53 93.0537V94.93H114.273V93.0537C114.273 92.4517 114.627 92.1671 115.085 92.1671C115.58 92.1671 115.827 92.4847 115.827 93.0537V94.93H116.648ZM127.658 91.5321H126.454V90.5053H125.712V91.5321H125.04V92.2042H125.712V93.763C125.712 94.5424 126.029 95.0001 126.879 95.0001C127.196 95.0001 127.551 94.8929 127.798 94.7527L127.584 94.1135C127.369 94.2537 127.122 94.2908 126.945 94.2908C126.59 94.2908 126.45 94.0764 126.45 93.7259V92.2042H127.654V91.5321H127.658ZM133.959 91.4578C133.534 91.4578 133.25 91.6723 133.073 91.9527V91.528H132.33V94.9259H133.073V93.0125C133.073 92.4475 133.32 92.1259 133.782 92.1259C133.922 92.1259 134.099 92.163 134.244 92.196L134.458 91.4867C134.31 91.4578 134.099 91.4578 133.959 91.4578ZM124.438 91.8125C124.083 91.5651 123.588 91.4578 123.056 91.4578C122.207 91.4578 121.642 91.8826 121.642 92.5548C121.642 93.1197 122.066 93.4414 122.809 93.5444L123.163 93.5816C123.551 93.6517 123.765 93.7589 123.765 93.9362C123.765 94.1836 123.481 94.3609 122.986 94.3609C122.491 94.3609 122.099 94.1836 121.852 94.0063L121.497 94.5712C121.885 94.8558 122.417 94.996 122.949 94.996C123.939 94.996 124.508 94.5341 124.508 93.8991C124.508 93.297 124.046 92.9795 123.341 92.8723L122.986 92.8352C122.668 92.7981 122.421 92.728 122.421 92.5176C122.421 92.2702 122.668 92.13 123.06 92.13C123.485 92.13 123.91 92.3073 124.124 92.4145L124.438 91.8125ZM144.186 91.4578C143.761 91.4578 143.477 91.6723 143.299 91.9527V91.528H142.557V94.9259H143.299V93.0125C143.299 92.4475 143.547 92.1259 144.009 92.1259C144.149 92.1259 144.326 92.163 144.471 92.196L144.685 91.495C144.541 91.4578 144.33 91.4578 144.186 91.4578ZM134.701 93.231C134.701 94.2578 135.411 95.0001 136.508 95.0001C137.002 95.0001 137.357 94.8929 137.712 94.6125L137.357 94.0104C137.073 94.2249 136.792 94.328 136.471 94.328C135.868 94.328 135.444 93.9032 135.444 93.231C135.444 92.5919 135.868 92.1671 136.471 92.1341C136.788 92.1341 137.073 92.2414 137.357 92.4517L137.712 91.8496C137.357 91.5651 137.002 91.462 136.508 91.462C135.411 91.4578 134.701 92.2042 134.701 93.231ZM141.567 93.231V91.5321H140.825V91.9568C140.578 91.6393 140.223 91.462 139.761 91.462C138.805 91.462 138.062 92.2042 138.062 93.231C138.062 94.2578 138.805 95.0001 139.761 95.0001C140.256 95.0001 140.611 94.8228 140.825 94.5053V94.93H141.567V93.231ZM138.842 93.231C138.842 92.629 139.229 92.1341 139.868 92.1341C140.471 92.1341 140.895 92.596 140.895 93.231C140.895 93.8331 140.471 94.328 139.868 94.328C139.233 94.2908 138.842 93.829 138.842 93.231ZM129.959 91.4578C128.969 91.4578 128.26 92.1671 128.26 93.2269C128.26 94.2908 128.969 94.996 129.996 94.996C130.491 94.996 130.986 94.8558 131.378 94.5341L131.023 94.0022C130.739 94.2166 130.384 94.3568 130.033 94.3568C129.572 94.3568 129.114 94.1424 129.007 93.5444H131.518C131.518 93.4372 131.518 93.3671 131.518 93.2599C131.551 92.1671 130.912 91.4578 129.959 91.4578ZM129.959 92.097C130.421 92.097 130.739 92.3816 130.809 92.9094H129.04C129.11 92.4517 129.427 92.097 129.959 92.097ZM148.4 93.231V90.1877H147.658V91.9568C147.411 91.6393 147.056 91.462 146.594 91.462C145.638 91.462 144.895 92.2042 144.895 93.231C144.895 94.2578 145.638 95.0001 146.594 95.0001C147.089 95.0001 147.444 94.8228 147.658 94.5053V94.93H148.4V93.231ZM145.675 93.231C145.675 92.629 146.062 92.1341 146.701 92.1341C147.304 92.1341 147.728 92.596 147.728 93.231C147.728 93.8331 147.304 94.328 146.701 94.328C146.062 94.2908 145.675 93.829 145.675 93.231ZM120.825 93.231V91.5321H120.083V91.9568C119.835 91.6393 119.481 91.462 119.019 91.462C118.062 91.462 117.32 92.2042 117.32 93.231C117.32 94.2578 118.062 95.0001 119.019 95.0001C119.514 95.0001 119.868 94.8228 120.083 94.5053V94.93H120.825V93.231ZM118.066 93.231C118.066 92.629 118.454 92.1341 119.093 92.1341C119.695 92.1341 120.12 92.596 120.12 93.231C120.12 93.8331 119.695 94.328 119.093 94.328C118.454 94.2908 118.066 93.829 118.066 93.231Z" fill="#606060"/>
<path d="M135.341 65.7258H124.19V85.7588H135.341V65.7258Z" fill="#3D3D3D"/>
<path d="M124.932 75.7423C124.932 71.6722 126.846 68.0598 129.782 65.7258C127.621 64.0268 124.895 63 121.922 63C114.879 63 109.18 68.699 109.18 75.7423C109.18 82.7856 114.879 88.4845 121.922 88.4845C124.895 88.4845 127.621 87.4577 129.782 85.7588C126.842 83.4577 124.932 79.8124 124.932 75.7423Z" fill="#606060"/>
<path d="M150.384 75.7423C150.384 82.7856 144.685 88.4845 137.642 88.4845C134.668 88.4845 131.943 87.4577 129.782 85.7588C132.755 83.4206 134.631 79.8124 134.631 75.7423C134.631 71.6722 132.718 68.0598 129.782 65.7258C131.939 64.0268 134.664 63 137.638 63C144.685 63 150.384 68.7361 150.384 75.7423Z" fill="#9B9B9B"/>
</g>
<g clip-path="url(#clip7_93_204)">
<mask id="mask0_93_204" style="mask-type:luminance" maskUnits="userSpaceOnUse" x="189" y="-22" width="467" height="576">
<path d="M189.215 553.331H655.912V-21.7471H189.215V553.331Z" fill="white"/>
</mask>
<g mask="url(#mask0_93_204)">
<path d="M579.885 8.52534C579.73 8.71261 579.643 8.92173 579.643 9.28534V19.2832H579.588C579.588 19.2832 574.115 9.52723 573.851 9.07623C573.664 8.75631 573.455 8.53627 573.179 8.37085C572.904 8.21713 572.617 8.11803 572.067 8.11803H570.262C569.843 8.11803 569.579 8.26083 569.392 8.48165C569.237 8.66814 569.149 8.87803 569.149 9.24087V23.4124C569.149 23.7761 569.237 23.9852 569.392 24.1724C569.579 24.3925 569.843 24.5353 570.262 24.5353H571.285C571.704 24.5353 571.968 24.3925 572.155 24.1724C572.309 23.9852 572.397 23.7761 572.397 23.4124V13.172H572.453C572.453 13.172 578.134 23.2361 578.366 23.6106C578.685 24.1389 579.224 24.5353 579.995 24.5353H581.746C582.164 24.5353 582.429 24.3925 582.616 24.1724C582.77 23.9852 582.858 23.7761 582.858 23.4124V10.6282H605.86C606.092 10.6282 606.267 10.5627 606.4 10.4527C606.543 10.32 606.609 10.1437 606.609 9.87992V8.9108C606.609 8.64629 606.543 8.46994 606.4 8.33807C606.267 8.22805 606.092 8.16173 605.86 8.16173H580.755C580.337 8.16173 580.072 8.3053 579.885 8.52534ZM589.927 12.3129C586.106 12.3129 583.959 15.2975 583.959 18.4467C583.959 21.8051 586.261 24.7561 589.949 24.7561C591.788 24.7561 593.594 24.0624 594.628 22.8397C595.08 22.3115 595.444 21.5733 595.444 21.1223C595.444 20.9678 595.41 20.8359 595.323 20.7368C595.235 20.6268 595.102 20.5605 594.871 20.5605H593.098C592.746 20.5605 592.504 20.6924 592.327 20.9569C591.81 21.7169 591.061 22.1133 589.96 22.1133C588.308 22.1133 587.241 20.8578 587.163 19.4814H594.827C595.168 19.4814 595.41 19.4041 595.576 19.2395C595.763 19.0631 595.851 18.8095 595.851 18.3359C595.851 16.8939 595.399 15.3966 594.453 14.2511C593.484 13.0947 592.008 12.3129 589.927 12.3129ZM601.742 12.3129C598.725 12.3129 596.743 13.7447 596.743 16.0348C596.743 16.8494 597.04 17.5104 597.525 18.0277C598.087 18.634 598.89 19.0522 600.058 19.3495L602.579 19.9878C603.272 20.1641 603.889 20.3732 603.889 20.9787C603.889 21.9151 602.898 22.2342 601.841 22.2342C601.323 22.2342 600.784 22.1351 600.343 21.9151C600.035 21.7606 599.771 21.5405 599.584 21.2432C599.419 20.9897 599.364 20.8024 599.11 20.6596C598.956 20.5714 598.769 20.5605 598.516 20.5605H597.15C596.853 20.5605 596.71 20.6487 596.611 20.7696C596.512 20.8906 596.479 21.0669 596.479 21.2432C596.479 21.6833 596.633 22.2342 596.997 22.7297C597.833 23.8525 599.584 24.7561 601.819 24.7561C604.022 24.7561 607.072 23.8416 607.072 20.8906C607.072 20.1313 606.851 19.4814 606.444 18.9531C605.926 18.2813 605.189 17.8186 603.933 17.4994L601.434 16.8604C600.399 16.5966 599.914 16.4094 599.914 15.7703C599.914 15.1539 600.465 14.6584 601.742 14.6584C602.491 14.6584 603.173 14.8238 603.614 15.2865C603.977 15.672 603.912 15.8702 604.198 16.0239C604.373 16.1121 604.572 16.1121 604.881 16.1121H606.124C606.323 16.1121 606.466 16.0793 606.575 15.9576C606.664 15.8585 606.719 15.7048 606.719 15.4512C606.719 14.8784 606.344 14.1411 605.684 13.5793C604.803 12.8193 603.416 12.3129 601.742 12.3129ZM608.602 12.7319H607.985C607.754 12.7319 607.578 12.7974 607.446 12.9074C607.303 13.0401 607.236 13.2164 607.236 13.4802V14.2402C607.236 14.5047 607.303 14.6803 607.446 14.8129C607.578 14.9229 607.754 14.9892 607.985 14.9892H608.602V20.4832C608.602 21.8924 608.987 22.7734 609.703 23.4788C610.364 24.128 611.223 24.5353 612.72 24.5353H613.656C613.888 24.5353 614.063 24.4697 614.196 24.3597C614.339 24.2271 614.427 24.0507 614.427 23.787V22.8288C614.427 22.5643 614.339 22.3887 614.196 22.2561C614.063 22.146 613.888 22.0797 613.656 22.0797H613.524C612.929 22.0797 612.522 21.926 612.247 21.6615C611.917 21.3533 611.751 20.8796 611.751 20.2632V14.9892H613.756C613.987 14.9892 614.163 14.9229 614.295 14.8129C614.438 14.6803 614.504 14.5047 614.504 14.2402V13.4802C614.504 13.2164 614.438 13.0401 614.295 12.9074C614.163 12.7974 613.987 12.7319 613.756 12.7319H611.762V9.14177C611.762 8.8554 611.674 8.64629 611.542 8.48165C611.377 8.28345 611.146 8.16173 610.805 8.16173H609.56C609.218 8.16173 608.987 8.28345 608.822 8.48165C608.69 8.64629 608.602 8.8554 608.602 9.14177V12.7319ZM615.341 23.5552C615.341 23.8416 615.429 24.0507 615.561 24.2161C615.726 24.4143 615.958 24.5353 616.299 24.5353H617.609C617.95 24.5353 618.181 24.4143 618.347 24.2161C618.479 24.0507 618.567 23.8416 618.567 23.5552V9.14255C618.567 8.85618 618.479 8.64707 618.347 8.48165C618.181 8.28345 617.95 8.16173 617.609 8.16173H616.299C615.958 8.16173 615.726 8.28345 615.561 8.48165C615.429 8.64707 615.341 8.85618 615.341 9.14255V23.5552ZM587.185 17.1358C587.328 15.7812 588.364 14.7684 589.938 14.7684C591.48 14.7684 592.547 15.7812 592.691 17.1358H587.185ZM630.492 10.6282C630.723 10.6282 630.899 10.5627 631.031 10.4527C631.175 10.32 631.241 10.1437 631.241 9.87992V8.8554C631.241 8.45902 631.164 8.26083 631.031 8.11803C630.91 7.98538 630.712 7.90891 630.492 7.90891C630.316 7.90891 630.14 7.93076 629.843 7.96354L621.055 8.83356C620.802 8.8554 620.681 8.93265 620.593 9.03175C620.494 9.14177 620.45 9.28534 620.45 9.48354V10.0555C620.45 10.2763 620.494 10.3754 620.571 10.4636C620.67 10.5736 620.813 10.6282 621.012 10.6282H630.492ZM625.636 12.3129C621.815 12.3129 619.668 15.2975 619.668 18.4467C619.668 21.8051 621.97 24.7561 625.658 24.7561C627.497 24.7561 629.303 24.0624 630.338 22.8397C630.789 22.3115 631.153 21.5733 631.153 21.1223C631.153 20.9678 631.119 20.8359 631.031 20.7368C630.944 20.6268 630.811 20.5605 630.58 20.5605H628.807C628.455 20.5605 628.213 20.6924 628.036 20.9569C627.519 21.7169 626.77 22.1133 625.669 22.1133C624.017 22.1133 622.949 20.8578 622.873 19.4814H630.558C630.899 19.4814 631.142 19.4041 631.307 19.2395C631.494 19.0631 631.582 18.8095 631.582 18.3359C631.582 16.8939 631.13 15.3966 630.184 14.2511C629.215 13.0947 627.717 12.3129 625.636 12.3129ZM622.894 17.1358C623.038 15.7812 624.073 14.7684 625.647 14.7684C627.189 14.7684 628.257 15.7812 628.4 17.1358H622.894Z" fill="#606060"/>
<path d="M556.73 10.7601C553.88 6.50833 551.375 5.07572 550.671 4.40156C549.897 3.65794 549.307 2.81523 548.931 2.40948C548.096 1.49733 547.016 0.37137 545.238 0.37137C543.522 0.37137 542.389 1.48952 542.02 2.45552C541.913 2.73096 541.829 3.06805 541.753 3.19055C541.584 3.46677 540.826 4.76127 540.511 5.2747H541.929L541.239 6.577C542.044 6.40065 542.618 6.27034 543.384 6.27034C544.066 6.27034 544.556 6.43186 544.771 6.86024C545.17 7.6577 545.17 10.0703 545.844 11.8869C546.472 13.5941 548.004 15.2647 549.728 16.5444C549.751 16.5592 549.774 16.567 549.804 16.567C549.889 16.567 549.943 16.5062 549.943 16.4445C549.943 16.3985 549.927 16.368 549.889 16.3298C548.448 14.8894 547.276 13.2961 546.648 11.5498C546.027 9.84874 546.127 7.45794 545.583 6.39285C545.223 5.68825 544.457 5.50488 543.752 5.50488C543.185 5.50488 542.656 5.61959 542.411 5.67264L543.032 4.62316H541.982C542.204 4.23301 542.434 3.87252 542.549 3.65794C542.648 3.47379 542.687 3.24439 542.81 2.93071C543.208 1.92648 544.089 1.29055 545.238 1.29055C546.679 1.29055 547.521 2.21753 548.356 3.14451C548.739 3.57367 549.367 4.47022 550.096 5.13659C550.593 5.59618 551.544 6.10961 553.007 7.61946C553.849 8.4926 554.83 9.62636 555.864 11.1432C559.565 16.5592 561.993 21.3322 563.349 25.0558L563.327 25.0714C559.443 22.4356 556.079 19.9457 553.367 16.8737C551.444 14.6904 549.774 12.1623 548.318 8.93659C548.218 8.72201 548.135 8.52303 548.043 8.31626C548.004 8.23199 547.966 8.20858 547.904 8.20858C547.828 8.20858 547.774 8.26242 547.774 8.33889C547.774 8.42316 547.812 8.6073 547.897 8.97482C548.671 12.3152 550.816 15.3108 553.107 17.8007C555.39 20.2757 557.971 22.4051 560.093 23.9532L561.748 28.6872C561.787 28.8027 561.833 28.9252 561.833 29.0399C561.833 29.1242 561.809 29.1928 561.756 29.2389C561.71 29.2849 561.649 29.3083 561.511 29.3083H561.013C560.799 29.3083 560.714 29.2771 560.637 29.2163C560.561 29.1546 560.508 29.0625 560.469 28.9556C560.324 28.5109 559.45 26.021 559.282 25.5154C559.251 25.4241 559.197 25.3928 559.136 25.3928C559.059 25.3928 559.006 25.4545 559.006 25.5232C559.006 25.5848 559.028 25.6535 559.067 25.868C559.289 27.0018 559.549 28.2737 559.656 28.7567C559.703 28.9783 559.756 29.1858 559.756 29.3388C559.756 29.4761 559.726 29.5533 559.611 29.668L559.098 30.1893C558.975 30.3118 558.906 30.3422 558.807 30.3422C558.684 30.3422 558.584 30.2579 558.538 30.0434C557.956 27.3233 557.075 23.9532 556.845 23.0177C556.791 22.8117 556.753 22.6962 556.63 22.6962C556.524 22.6962 556.485 22.7726 556.485 22.8647C556.485 22.9334 556.5 23.0177 556.508 23.0793C556.646 24.0445 557.205 27.5613 557.81 30.7714C557.918 31.323 558.125 31.6289 558.6 31.6289C558.814 31.6289 559.02 31.5446 559.212 31.3613C559.527 31.0468 559.618 30.9625 559.994 30.595C560.262 30.3344 560.446 30.2275 560.906 30.2275H562.039C562.308 30.2275 562.453 30.1588 562.583 30.0356C562.706 29.9209 562.782 29.7601 562.782 29.5299C562.782 29.2927 562.721 29.1016 562.637 28.8636C562.346 28.0825 561.411 25.4389 561.135 24.6961L561.158 24.6804C562.116 25.4085 563.51 26.3354 564.124 26.3354C564.315 26.3354 564.43 26.2512 564.43 25.9523C564.43 24.5431 562.085 18.7432 556.73 10.7601Z" fill="#606060"/>
<path d="M530.429 1.85754C530.59 1.50485 530.943 1.25984 531.364 1.25984C531.938 1.25984 532.398 1.7046 532.398 2.2945C532.398 2.63861 532.237 2.93824 531.984 3.1216C532.038 3.32136 532.076 3.49692 532.076 3.66547C532.076 4.3092 531.693 4.76099 530.989 4.99898C530.897 5.38912 530.728 5.74181 530.452 6.00243C529.992 6.44641 529.525 6.44641 529.525 6.63056C529.525 6.73043 529.594 6.7913 529.785 6.7913C530.636 6.7913 531.471 6.31688 531.571 5.52723C532.383 5.25179 532.873 4.43171 532.873 3.78095C532.873 3.61163 532.857 3.46649 532.789 3.32916C533.011 3.1138 533.272 2.74629 533.272 2.20243C533.272 1.72723 533.064 1.24501 532.697 0.892323C532.375 0.577867 531.923 0.371092 531.394 0.371092C530.628 0.371092 530.13 0.785424 529.847 1.19117C529.011 1.19117 527.932 2.11816 527.932 3.44386H527.817C527.74 2.98427 527.265 2.67684 526.866 2.65421C526.545 1.689 525.817 0.861892 524.622 0.861892C524.484 0.861892 524.316 0.869695 524.17 0.892323C523.818 0.570064 523.427 0.371092 522.883 0.371092C521.841 0.371092 520.99 1.20678 520.99 2.26329C520.99 2.92263 521.289 3.37442 521.856 3.77314C521.856 3.77314 521.848 3.85742 521.848 3.89565C521.848 4.73836 522.768 6.05627 524.132 6.05627C524.132 6.27006 524.4 6.56189 524.699 6.61495V6.72263H524.583C522.707 6.72263 521.91 7.62698 521.91 8.23171C521.351 8.46189 520.99 9.08222 520.99 9.65651C520.99 10.7981 521.826 11.6104 522.929 11.6104C523.297 11.6104 523.672 11.4652 523.933 11.2655C524.124 11.3341 524.369 11.3724 524.622 11.3724C525.151 11.3724 525.74 11.189 526.154 10.5835C526.216 10.5913 526.269 10.5913 526.33 10.5913C527.005 10.5913 527.587 10.1465 527.893 9.56444C527.97 9.4193 528 9.3046 528 9.21955C528 9.13606 527.962 9.06662 527.878 9.06662C527.771 9.06662 527.755 9.16649 527.564 9.34284C527.135 9.73376 526.476 9.87889 525.801 9.87889C525.472 10.3619 525.066 10.6147 524.599 10.6147C524.254 10.6147 523.986 10.5226 523.71 10.3385C523.488 10.5835 523.212 10.6834 522.944 10.6834C522.339 10.6834 521.91 10.262 521.91 9.64871C521.91 9.21955 522.185 8.83721 522.569 8.6913C522.637 7.93286 523.45 7.41943 524.461 7.41943C524.591 7.41943 524.721 7.42723 524.86 7.44284C525.012 7.19783 525.38 6.93721 525.901 6.86776C526.009 6.85294 526.092 6.84514 526.154 6.81471C526.216 6.78349 526.246 6.72263 526.246 6.65319C526.246 6.59232 526.223 6.53848 526.162 6.50025C526.108 6.46982 526.016 6.45499 525.909 6.43158C525.426 6.33951 524.852 6.04066 524.561 5.31265C523.404 5.31265 522.553 4.38567 522.553 3.34399V3.27532C522.17 3.12161 521.91 2.75409 521.91 2.31713C521.91 1.74284 522.362 1.28325 522.936 1.28325C523.281 1.28325 523.58 1.45179 523.772 1.7046C523.933 1.65857 524.116 1.64296 524.292 1.64296C525.151 1.64296 526.07 2.18682 526.246 3.24411C527.349 3.34399 527.61 4.27877 527.679 4.6697C527.717 4.86867 527.747 5.03721 527.878 5.03721C528.016 5.03721 528.046 4.88349 528.092 4.67672C528.177 4.28657 528.322 3.97212 528.613 3.72711C528.613 2.72288 529.364 1.85754 530.429 1.85754Z" fill="#606060"/>
<path d="M532.659 7.86403C532.298 8.37746 532.038 8.63027 531.218 9.59548C530.138 10.8752 529.571 11.9098 528.628 14.2078C528.782 14.1922 529.004 14.1773 529.249 14.1773C529.372 14.1773 529.471 14.1773 529.633 14.1844L529.747 13.9393C530.276 12.8056 530.988 11.2731 531.984 10.0933L532.329 9.68756C533.355 8.48513 533.991 7.77195 534.39 6.13257C534.528 5.55047 534.643 5.03002 535.034 4.65392C535.386 4.31684 535.83 4.17171 536.282 4.17171C536.665 4.17171 536.949 4.26378 537.363 4.43934C537.738 4.60008 537.876 4.63129 538.274 4.63129C538.412 4.63129 538.511 4.62349 538.604 4.61569L538.067 5.33589L538.795 5.84932C537.883 6.11696 537.401 6.99869 537.24 7.40444C537.209 7.48871 537.194 7.54255 537.194 7.59639C537.194 7.65803 537.225 7.71889 537.317 7.71889C537.416 7.71889 537.492 7.64242 537.623 7.48871C538.067 6.95265 538.42 6.58435 540.059 6.07171L538.902 5.19778L539.776 3.91889H538.956C538.435 3.91889 538.09 3.91109 537.638 3.70431C537.025 3.42107 536.711 3.29856 536.167 3.29856C535.501 3.29856 534.896 3.53577 534.398 3.99536C533.823 4.52362 533.646 5.229 533.44 6.00304C533.279 6.59996 533.088 7.2593 532.659 7.86403Z" fill="#606060"/>
<path d="M534.421 13.0812C533.984 13.6711 533.386 14.4444 532.926 15.2644C533.072 15.3339 533.555 15.5945 533.724 15.6858C534.252 14.8891 534.988 13.9091 535.47 13.1655C535.907 12.4913 536.083 12.2002 536.114 11.2959C536.122 11.143 536.122 10.997 536.136 10.8519C536.175 10.3845 536.298 9.90932 536.742 9.47314C537.071 9.14308 537.546 8.97532 538.022 8.97532C538.481 8.97532 538.749 9.10485 539.148 9.10485C539.431 9.10485 539.638 9.03618 539.822 8.96752L539.968 8.91368L539.615 9.75717L540.442 10.0935C539.914 10.4228 538.757 11.8405 538.757 13.5182C538.757 14.1237 538.849 14.6823 538.979 15.1802C538.995 15.234 539.025 15.2878 539.109 15.2878C539.186 15.2878 539.24 15.2418 539.247 15.1575L539.255 14.9812C539.278 14.4678 539.316 13.6563 539.523 12.9283C539.868 11.7024 540.795 10.5531 541.722 10.0014L540.404 9.42711L540.971 8.04053L540.351 8.17084C539.975 8.24731 539.699 8.31598 539.37 8.31598C539.155 8.31598 538.91 8.28554 538.619 8.2161C538.397 8.16304 538.159 8.117 537.823 8.117C537.217 8.117 536.566 8.34641 536.122 8.77556C535.309 9.54961 535.263 10.3845 535.209 11.1281C535.141 12.116 534.957 12.361 534.421 13.0812Z" fill="#606060"/>
<path d="M554.079 13.5486C554.026 13.4799 553.98 13.4487 553.919 13.4487C553.827 13.4487 553.781 13.5103 553.781 13.579C553.781 13.6867 553.857 13.817 554.049 14.1393C554.631 15.1271 555.351 16.1228 556.24 17.0583C557.197 18.0766 558.323 19.0262 559.527 19.8767L559.902 20.1373C559.956 20.1763 559.994 20.199 560.04 20.199C560.117 20.199 560.17 20.1225 560.17 20.0609C560.17 20.0226 560.155 19.9836 560.109 19.9454C558.991 18.9271 557.787 17.6857 556.661 16.491C555.78 15.5485 554.876 14.5528 554.079 13.5486Z" fill="#606060"/>
<path d="M529.425 10.0781C529.54 9.88695 529.885 9.41956 530.023 9.27365C529.433 8.07903 528.468 6.93747 528.047 6.4849L527.694 6.82979C528.101 7.41969 528.782 8.56125 529.425 10.0781Z" fill="#606060"/>
<path d="M523.81 3.16025C523.74 3.09861 523.726 3.06037 523.726 3.01434C523.726 2.96128 523.764 2.89963 523.848 2.89963C523.878 2.89963 523.909 2.90744 523.948 2.92304C524.514 3.15245 524.997 3.42087 525.427 3.75015C525.786 4.02559 526.139 4.36345 526.483 4.7692L526.162 5.13672C525.764 4.80666 524.476 3.72752 523.81 3.16025Z" fill="#606060"/>
<path d="M529.242 5.72656L528.828 5.47375C529.096 4.83782 529.426 4.25572 529.816 3.81876C530.092 3.50508 530.353 3.25149 530.644 2.99946C530.712 2.94562 530.751 2.89958 530.819 2.89958C530.897 2.89958 530.95 2.96122 530.95 3.02209C530.95 3.05252 530.935 3.09075 530.904 3.13679C530.437 3.8648 529.525 5.30521 529.242 5.72656Z" fill="#606060"/>
<path d="M524.047 9.28137C523.948 9.31961 523.902 9.34302 523.848 9.34302C523.764 9.34302 523.725 9.27357 523.725 9.21973C523.725 9.16667 523.749 9.13624 523.802 9.08942C524.744 8.35439 525.572 8.06335 526.714 7.8714L526.851 8.33176L524.047 9.28137Z" fill="#606060"/>
<path d="M543.698 3.33656C543.698 3.06814 543.836 2.58515 544.334 2.58515C544.503 2.58515 544.664 2.62338 544.794 2.68502C544.978 2.76929 545.101 2.8918 545.101 3.02211C545.101 3.16022 544.962 3.29833 544.756 3.46687C544.541 3.64244 544.266 3.80396 544.043 3.80396C543.776 3.80396 543.698 3.55036 543.698 3.33656Z" fill="#606060"/>
<path d="M535.922 5.57344C535.922 5.24416 536.121 4.88367 536.504 4.88367C536.673 4.88367 536.872 4.95233 537.018 5.09122C537.102 5.16769 537.14 5.25118 537.14 5.33623C537.14 5.52038 536.964 5.69595 536.757 5.81845C536.596 5.91053 536.428 5.97217 536.283 5.97217C536.045 5.97217 535.922 5.82547 535.922 5.57344Z" fill="#606060"/>
<path d="M537.723 10.3004C537.723 10.224 537.73 10.1319 537.761 10.0398C537.823 9.84084 537.952 9.64889 538.274 9.64889C538.42 9.64889 538.58 9.68712 538.711 9.77998C538.826 9.85645 538.872 9.95554 538.872 10.0554C538.872 10.3847 538.32 10.7678 538.044 10.7678C537.845 10.7678 537.723 10.5759 537.723 10.3004Z" fill="#606060"/>
<path d="M534.704 19.9688C533.67 19.9688 533.21 19.4787 533.21 18.8584C533.21 17.7699 535.118 16.7056 536.833 16.0462L537.278 16.6213C536.221 17.0419 534.092 17.947 534.092 18.7281C534.092 19.0035 534.252 19.2033 534.895 19.2033C536.014 19.2033 537.217 18.6586 538.328 18.1148C538.412 18.0766 538.512 18.0383 538.604 18.0383C538.749 18.0383 538.841 18.0844 538.948 18.2373L539.132 18.4901C537.838 19.2033 536.221 19.9688 534.704 19.9688Z" fill="#606060"/>
<path d="M537.554 20.26C536.543 20.8265 535.493 21.2026 534.566 21.2026C533.532 21.2026 532.613 20.7579 531.846 19.6007C531.525 19.1107 531.272 18.4982 530.965 17.9543C530.598 17.3106 530.199 16.9657 529.502 16.9657C528.866 16.9657 528.245 17.2263 527.587 17.5095L527.617 17.6554C527.671 17.8927 527.763 18.0612 527.985 18.0612C528.085 18.0612 528.185 18.0159 528.238 18.0003C528.606 17.8849 528.874 17.785 529.25 17.785C529.824 17.785 530.099 18.1228 530.49 18.9499L530.636 19.2566C530.237 19.3947 529.303 19.4634 528.606 19.4634H528.277L528.33 19.7927C528.353 19.9308 528.407 20.0455 528.522 20.0993C528.659 20.168 528.859 20.1758 529.204 20.1758C530.077 20.1758 530.713 20.0689 531.08 19.976C532.023 21.379 533.317 21.915 534.566 21.915C535.631 21.915 536.712 21.5241 537.746 20.9576L537.554 20.26Z" fill="#606060"/>
<path d="M538.596 20.6049L538.413 19.8995C539.99 19.0498 541.431 18.3678 543.729 18.1454C543.775 19.0264 543.714 20.1375 544.365 20.1375C544.962 20.1375 546.265 18.5972 547.767 16.6668C547.905 16.7971 548.126 16.9352 548.326 17.0881L547.943 17.586C546.479 19.4711 545.231 21.0801 544.204 21.0801C543.246 21.0801 542.886 19.9533 542.871 19.1106C541.408 19.2565 540.029 19.7466 538.596 20.6049Z" fill="#606060"/>
<path d="M558.868 5.22862C558.27 5.22862 558.102 4.89856 558.102 4.43195C558.102 3.46673 558.707 2.08016 559.09 1.29051H558.162C557.68 2.2253 555.78 5.22082 554.753 6.46226L555.343 7.09741C555.895 6.48489 556.5 5.4432 557.159 4.41634H557.281C557.281 4.47018 557.274 4.53105 557.274 4.58489C557.274 5.45101 557.718 6.09396 558.814 6.09396C559.488 6.09396 560.545 5.75688 561.542 5.41979C562.369 5.13655 563.127 4.8455 563.503 4.7386V3.81942C563.074 3.94895 562.2 4.28604 561.296 4.60049C560.346 4.92977 559.412 5.22862 558.868 5.22862Z" fill="#606060"/>
<path d="M560.913 8.00943C561.832 7.61929 563.48 6.95995 564.43 6.61506V5.68027C562.522 6.38565 559.174 7.77222 556.891 9.01366C556.952 9.08935 557.351 9.64882 557.396 9.71826C558.362 9.31953 559.228 9.05892 560.009 9.05892C561.105 9.05892 562.001 9.05892 563.503 8.70623V8.00163C562.66 8.15535 561.764 8.33871 561.182 8.33871C560.837 8.33871 560.737 8.29268 560.737 8.17797C560.737 8.10931 560.783 8.06327 560.913 8.00943Z" fill="#606060"/>
</g>
<path d="M541.285 12.3151L540.917 13.0205H544.832L544.541 12.3151H541.285Z" fill="#606060"/>
<mask id="mask1_93_204" style="mask-type:luminance" maskUnits="userSpaceOnUse" x="189" y="-22" width="467" height="576">
<path d="M189.215 553.331H655.912V-21.7471H189.215V553.331Z" fill="white"/>
</mask>
<g mask="url(#mask1_93_204)">
<path d="M527.181 16.5214C527.594 16.5214 527.931 16.3833 528.254 16.2537C528.559 16.1305 528.866 16.008 529.28 16.008C530.26 16.008 531.471 16.4831 532.536 16.9349C532.597 16.9583 532.666 16.9732 532.735 16.9732C532.904 16.9732 533.034 16.8967 533.118 16.736L533.256 16.4831C532.084 15.8012 530.214 15.0732 529.241 15.0732C528.797 15.0732 528.475 15.1886 528.169 15.3104C527.824 15.4493 527.526 15.5944 527.211 15.5944C526.438 15.5944 524.454 14.8282 524.454 14.0853C524.454 13.2122 527.61 12.8751 527.955 12.8751L528.268 12.1619C525.978 12.1619 523.25 12.9664 523.25 14.0315C523.25 14.3381 523.427 14.4911 523.427 14.7743C523.427 15.1574 523.25 15.4181 523.25 15.8472C523.25 16.1305 523.419 16.4909 523.618 16.8054C523.832 17.1347 524.085 17.3485 524.085 17.6247C524.085 17.8315 523.948 18.0765 523.948 18.5595C523.948 19.5934 524.538 20.2223 525.686 21.4551L525.917 21.7001C524.967 22.0684 523.197 22.8347 522.783 23.0103C521.35 23.608 520.991 24.336 520.991 25.4853C520.991 25.9293 520.991 26.4349 521.021 26.8867H521.297C521.872 26.8867 521.94 26.5426 521.94 26.2133C521.94 25.9909 521.932 25.7381 521.932 25.4619C521.94 24.8268 521.964 24.2595 522.99 23.7999C523.404 23.6158 525.434 22.7886 526.943 22.1449C527.387 21.953 527.801 21.7922 528.261 21.7922C528.774 21.7922 529.364 22.0146 530.1 22.4516C530.72 22.8191 531.372 23.3169 531.885 23.8912L532.536 23.3934C531.976 22.7348 531.203 22.1449 530.429 21.6853C529.655 21.2257 528.966 20.9573 528.384 20.9573C528.131 20.9573 527.924 21.0034 527.748 21.0494C527.541 21.1032 527.349 21.1641 527.104 21.1641C526.821 21.1641 526.583 21.0954 526.238 20.6967C526.108 20.5516 525.281 19.609 525.104 19.3335C525.02 19.2032 524.867 18.9426 524.867 18.636C524.867 18.5057 524.89 18.3527 524.967 18.2146C525.679 18.7663 526.56 19.1034 527.632 19.2337L527.487 18.5057C525.947 18.0999 524.308 16.7438 524.308 15.8706C524.308 15.6865 524.354 15.5562 524.423 15.3954C525.02 15.9471 526.422 16.5214 527.181 16.5214Z" fill="#606060"/>
<path d="M538.205 16.6595C539.171 15.9775 540.166 15.9011 540.971 15.9011C541.454 15.9011 542.02 15.9697 542.618 16.0462C543.101 16.1079 543.537 16.1539 544.058 16.1539C545.108 16.1539 546.165 15.7708 546.625 15.571C546.755 15.7325 546.977 15.9471 547.154 16.1001C546.931 16.2382 545.522 17.0036 544.082 17.0036C543.446 17.0036 542.84 16.9279 542.319 16.8585C541.86 16.7976 541.362 16.7438 540.879 16.7438C540.35 16.7438 539.285 16.8967 538.627 17.2112L538.205 16.6595Z" fill="#606060"/>
<path d="M552.432 19.3946C551.283 21.8158 549.536 23.5777 547.743 24.5967C546.893 25.079 546.127 25.3934 544.473 25.3934H540.894C539.615 25.3934 538.811 25.562 538.183 25.7227C537.508 25.899 537.079 26.0746 536.397 26.0746C535.386 26.0746 534.451 25.5768 533.999 25.1024L534.842 24.436L534.421 23.8758C534.176 24.0529 531.18 26.2666 530.551 26.7644L530.513 26.7417C530.529 26.5888 530.529 26.4507 530.529 26.3126C530.529 24.6272 529.747 24.2206 528.56 23.7462L527.756 24.2206C529.387 24.7653 529.793 25.2015 529.793 26.4195C529.793 27.3855 529.448 27.7678 528.95 28.0597C528.437 28.3585 527.801 28.4958 527.242 28.4958C527.004 28.4958 526.897 28.5419 526.813 28.6261C526.721 28.7182 526.675 28.8563 526.675 29.0475V29.3159H526.867C527.893 29.3159 528.843 29.1552 529.885 28.3351L533.279 25.6845C533.761 26.2361 534.98 27.0024 536.42 27.0024C537.232 27.0024 537.753 26.8026 538.504 26.6114C539.086 26.4655 539.653 26.3352 540.894 26.3352H544.487C546.326 26.3352 547.215 25.9521 548.195 25.4012C550.325 24.2058 552.141 22.1833 553.168 19.8612C552.9 19.6934 552.647 19.5397 552.432 19.3946Z" fill="#606060"/>
<path d="M546.663 22.2752C547.59 20.7888 548.417 19.4708 550.448 18.3987C550.233 18.2684 549.927 18.0695 549.766 17.9618C548.977 18.3067 548.196 18.9957 547.529 19.6932C545.997 21.2866 546.134 22.2058 544.518 22.8269C544.112 22.9798 543.614 23.1483 542.978 23.2943C542.603 22.1371 541.661 20.9877 540.664 20.9877C539.975 20.9877 539.178 21.3474 538.259 21.754C537.179 22.2292 536.19 22.773 535.877 22.9798L536.298 23.5471C536.619 23.3699 537.546 22.9104 538.473 22.5124C539.278 22.1675 540.006 21.8843 540.496 21.8843C541.285 21.8843 541.798 22.7808 542.082 23.5003C541.048 23.746 539.347 23.8069 538.834 23.8069C538.596 23.8069 538.512 23.8451 538.427 23.9146C538.351 23.9832 538.289 24.1058 538.251 24.2743L538.19 24.5349H538.741C541.607 24.5349 544.312 24.0831 546.05 23.0258C546.296 23.0953 546.51 23.1405 546.786 23.1405C547.781 23.1405 548.808 22.5967 549.452 22.0989C549.681 21.9225 549.735 21.761 549.735 21.5854C549.735 21.5012 549.728 21.4247 549.72 21.3474L549.689 21.0494C548.77 21.7766 548.004 22.3212 547.054 22.3212C546.886 22.3212 546.763 22.3056 546.663 22.2752Z" fill="#606060"/>
</g>
</g>
<g clip-path="url(#clip8_93_204)">
<path d="M465.627 31.278H472.657V18.4343C472.657 15.5036 474.369 13.4303 476.894 13.4303C479.328 13.4303 480.589 15.1426 480.589 17.577V31.278H487.619V16.2256C487.619 11.1314 484.555 7.5262 479.596 7.5262C476.443 7.5262 474.234 8.87754 472.567 11.357H472.431V8.20306H465.627V31.278ZM451.836 7.57132C444.49 7.57132 439.576 12.8437 439.576 19.7857C439.576 26.6825 444.488 32 451.836 32C459.184 32 464.095 26.6825 464.095 19.7857C464.095 12.8461 459.184 7.57132 451.836 7.57132ZM451.791 26.8155C448.456 26.8155 446.699 24.0226 446.699 19.7857C446.699 15.5036 448.456 12.7558 451.791 12.7558C455.125 12.7558 456.973 15.506 456.973 19.7857C456.975 24.0226 455.127 26.8155 451.791 26.8155ZM419.567 31.278H439.308V25.7349H428.131V25.5995L438.812 13.6108V8.20306H419.567V13.7462H430.383V13.8815L419.567 25.9605V31.278ZM410.552 31.278H417.627V8.20306H410.552V31.278ZM394.148 31.278H401.178V20.6881C401.178 15.8646 404.064 13.7462 408.479 14.3328H408.614V8.24818C408.253 8.11281 407.847 8.06769 407.173 8.06769C404.422 8.06769 402.575 9.32878 400.998 12.0338H400.862V8.20306H394.148V31.278ZM381.212 26.863C378.103 26.863 376.21 24.8348 375.849 21.726H392.479C392.524 16.7671 391.218 12.8009 388.467 10.3239C386.529 8.5213 383.96 7.52857 380.716 7.52857C373.776 7.52857 368.953 12.801 368.953 19.6978C368.953 26.6374 373.55 31.9573 381.167 31.9573C384.052 31.9573 386.349 31.1901 388.242 29.8839C390.27 28.4875 391.712 26.4593 392.118 24.4311H385.359C384.684 25.9605 383.285 26.863 381.212 26.863ZM380.853 12.5753C383.333 12.5753 385.045 14.423 385.316 17.1281H375.897C376.436 14.3779 377.923 12.5753 380.853 12.5753ZM410.552 0H417.627V6.2651H410.552V0Z" fill="#606060"/>
<path d="M344.873 8.20312L353.622 30.9931C353.689 31.1665 353.855 31.2805 354.04 31.2805H361.139C360.954 31.2805 360.787 31.1665 360.721 30.9931L351.972 8.20312H344.873Z" fill="#606060"/>
<path d="M370.306 8.20312L361.557 30.9931C361.49 31.1665 361.324 31.2805 361.139 31.2805H354.04C354.226 31.2805 354.392 31.1665 354.458 30.9931L363.208 8.20312H370.306Z" fill="#606060"/>
</g>
<defs>
<clipPath id="clip0_93_204">
<rect width="315.616" height="32" fill="white" transform="translate(244.384 63)"/>
</clipPath>
<clipPath id="clip1_93_204">
<rect width="78.1798" height="32" fill="white" transform="translate(0 63)"/>
</clipPath>
<clipPath id="clip2_93_204">
<rect width="102.014" height="32" fill="white" transform="translate(209.859)"/>
</clipPath>
<clipPath id="clip3_93_204">
<rect width="32" height="32" fill="white" transform="translate(181.384 63)"/>
</clipPath>
<clipPath id="clip4_93_204">
<rect width="41.5089" height="32" fill="white" transform="translate(591 63)"/>
</clipPath>
<clipPath id="clip5_93_204">
<rect width="176.859" height="32" fill="white"/>
</clipPath>
<clipPath id="clip6_93_204">
<rect width="41.2041" height="32" fill="white" transform="translate(109.18 63)"/>
</clipPath>
<clipPath id="clip7_93_204">
<rect width="111.334" height="32" fill="white" transform="translate(520.619)"/>
</clipPath>
<clipPath id="clip8_93_204">
<rect width="142.746" height="32" fill="white" transform="translate(344.873)"/>
</clipPath>
</defs>
</svg>
