<svg width="51" height="32" viewBox="0 0 51 32" fill="none" xmlns="http://www.w3.org/2000/svg">
<path d="M18.7749 30.0184C17.5797 30.0184 16.5227 29.7151 15.6037 29.1085C14.6908 28.5019 13.9761 27.6641 13.4596 26.595C12.9431 25.5199 12.6848 24.2797 12.6848 22.8743C12.6848 21.4569 12.9431 20.2106 13.4596 19.1356C13.9761 18.0545 14.6908 17.2136 15.6037 16.613C16.5227 16.0064 17.5797 15.7031 18.7749 15.7031C19.9701 15.7031 21.0242 16.0064 21.9371 16.613C22.85 17.2196 23.5647 18.0605 24.0812 19.1356C24.6037 20.2106 24.865 21.4569 24.865 22.8743C24.865 24.2797 24.6067 25.5199 24.0902 26.595C23.5737 27.6641 22.856 28.5019 21.9371 29.1085C21.0242 29.7151 19.9701 30.0184 18.7749 30.0184ZM18.7749 28.55C19.7359 28.55 20.5497 28.2917 21.2163 27.7752C21.883 27.2587 22.3875 26.571 22.7299 25.7121C23.0782 24.8533 23.2524 23.9073 23.2524 22.8743C23.2524 21.8413 23.0782 20.8923 22.7299 20.0274C22.3875 19.1626 21.883 18.4689 21.2163 17.9464C20.5497 17.4238 19.7359 17.1626 18.7749 17.1626C17.82 17.1626 17.0061 17.4238 16.3335 17.9464C15.6668 18.4689 15.1593 19.1626 14.8109 20.0274C14.4686 20.8923 14.2974 21.8413 14.2974 22.8743C14.2974 23.9073 14.4686 24.8533 14.8109 25.7121C15.1593 26.571 15.6668 27.2587 16.3335 27.7752C17.0001 28.2917 17.8139 28.55 18.7749 28.55Z" fill="white"/>
<path d="M28.9741 21.0815V29.7302H27.3705V15.8923H28.929V18.0635H29.0732C29.3975 17.3548 29.902 16.7872 30.5867 16.3608C31.2774 15.9284 32.1303 15.7121 33.1453 15.7121C34.0762 15.7121 34.893 15.9073 35.5957 16.2977C36.3044 16.6821 36.854 17.2497 37.2444 18.0004C37.6408 18.7512 37.839 19.6731 37.839 20.7662V29.7302H36.2354V20.8653C36.2354 19.7302 35.917 18.8323 35.2804 18.1716C34.6498 17.5109 33.8029 17.1806 32.7399 17.1806C32.0131 17.1806 31.3675 17.3368 30.8029 17.6491C30.2384 17.9614 29.7909 18.4118 29.4606 19.0004C29.1363 19.583 28.9741 20.2767 28.9741 21.0815Z" fill="white"/>
<path d="M0.999999 0C0.447714 0 -1.01363e-06 0.447715 -1.01363e-06 1V31C-1.01363e-06 31.5523 0.447714 32 0.999999 32H5.76562C6.31791 32 6.76562 31.5523 6.76562 31V6.5675C6.76562 6.48708 6.83082 6.42187 6.91125 6.42187V6.42187C6.93861 6.42187 6.96542 6.42958 6.9886 6.44411L12.7501 10.0558C13.4161 10.4733 14.2812 9.99456 14.2812 9.20852V5.56607C14.2812 5.22335 14.1057 4.90451 13.8162 4.72118L6.60435 0.155106C6.44433 0.0537885 6.25882 0 6.06942 0H0.999999Z" fill="white"/>
<path d="M49.5515 0C50.1038 0 50.5515 0.447715 50.5515 1V31C50.5515 31.5523 50.1038 32 49.5515 32H44.7859C44.2336 32 43.7859 31.5523 43.7859 31V6.5675C43.7859 6.48708 43.7207 6.42187 43.6403 6.42187V6.42187C43.6129 6.42187 43.5861 6.42958 43.5629 6.44411L37.8014 10.0558C37.1354 10.4733 36.2703 9.99456 36.2703 9.20852V5.56607C36.2703 5.22335 36.4458 4.90451 36.7353 4.72118L43.9472 0.155106C44.1072 0.0537885 44.2927 0 44.4821 0H49.5515Z" fill="white"/>
</svg>
