<svg width="242" height="76" viewBox="0 0 242 76" fill="none" xmlns="http://www.w3.org/2000/svg">
<g clip-path="url(#clip0_60_66)">
<path d="M77.3007 23.6419V16.9529C75.0954 15.915 73.0062 15.3384 70.2206 15.3384C61.2834 15.3384 55.364 20.9894 55.364 29.5235C55.364 37.827 61.2834 43.7086 69.6403 43.7086C72.658 43.7086 75.0954 43.132 77.5328 41.8634V34.8285C75.6758 37.0197 73.4705 38.0577 70.4527 38.0577C64.9976 38.0577 61.7477 34.8285 61.7477 29.1775C61.7477 23.7572 64.9976 20.2974 70.1045 20.2974C73.0062 20.4127 75.6758 21.4507 77.3007 23.6419Z" fill="#606060"/>
<path d="M162.494 42.6707H168.762V14.7618C170.154 16.1457 171.199 17.1836 172.824 18.7982L199.636 44.2853V1.61457H193.368V29.2929C191.743 27.6783 190.698 26.6404 188.725 25.0258L162.494 0V42.6707Z" fill="#606060"/>
<path d="M204.394 42.6707H210.662V14.7618C212.055 16.1457 213.099 17.1836 214.724 18.7982L241.42 44.2853V1.61457H235.152V29.2929C233.527 27.6783 232.483 26.6404 230.509 25.0258L204.394 0V42.6707Z" fill="#606060"/>
<path d="M116.764 11.5327L116.996 4.84373C112.933 1.84525 108.639 0.57666 103.764 0.57666C97.4965 0.57666 92.1574 2.76786 88.095 6.80428C84.0327 10.8407 81.8274 16.261 81.8274 22.1427C81.8274 28.0243 84.0327 33.6753 88.095 37.4811C92.1574 41.5175 97.6125 43.7087 103.996 43.7087C108.871 43.7087 113.166 42.3248 116.648 39.9029V32.2914C112.585 35.7512 108.291 37.3657 103.416 37.3657C95.059 37.3657 88.7914 31.1381 88.7914 22.0273C88.7914 12.9166 95.1751 6.68895 104.112 6.68895C108.755 6.68895 113.049 8.30352 116.764 11.5327Z" fill="#606060"/>
<path d="M139.281 26.6404H133.361L137.423 17.1836C138.004 16.1457 138.004 15.569 139.048 13.7238C139.861 15.569 140.093 15.915 140.673 17.1836L144.736 26.6404H139.281ZM139.281 0L119.317 42.6707H126.397L131.04 32.176H139.164H147.289L151.932 42.6707H159.012L139.281 0Z" fill="#606060"/>
<path d="M0 43.0165L15.9012 0.230469L27.2758 28.4854L38.07 0.230469L54.6676 43.0165H48.1679L38.07 16.3761L27.2758 44.2851L15.9012 16.3761L6.49976 43.0165H0Z" fill="#606060"/>
<path d="M234.107 66.3124H234.688C236.081 66.3124 237.125 66.3124 237.938 66.0817C238.518 66.0817 239.33 65.5051 239.795 65.2744C240.375 64.6978 240.839 64.2365 241.42 63.4292C241.652 62.6219 242 61.8147 242 60.7767C242 59.7388 241.768 58.9315 241.42 58.1242C241.188 57.3169 240.607 56.7403 239.795 56.279C239.214 56.0483 238.75 55.7024 237.938 55.4717C237.357 55.4717 236.081 55.2411 234.688 55.2411H229.813V75.4232H232.831V66.3124H234.107ZM233.295 58.0089H234.107C235.965 58.0089 237.125 58.2395 237.589 58.5855C238.17 58.8162 238.634 59.6235 238.634 61.0074C238.634 62.0453 238.402 62.8526 237.822 63.1986C237.241 63.7752 235.965 63.7752 234.34 63.7752H233.527L233.295 58.0089ZM204.394 67.6963C204.394 70.3488 204.975 72.54 206.6 73.9239C207.992 75.3078 210.082 75.7691 212.867 75.7691C215.537 75.7691 217.742 75.1925 219.135 73.5779C220.528 72.194 221.34 70.1181 221.34 67.3503V55.1257H218.09V67.4656C218.09 69.3109 217.51 70.6948 216.697 71.5021C215.885 72.3093 214.492 72.886 212.867 72.886C211.242 72.886 209.849 72.3093 209.037 71.5021C208.224 70.6948 207.644 69.0802 207.644 67.4656V55.1257H204.394V67.6963ZM195.805 61.238C195.225 59.8541 194.412 58.8162 193.368 57.7782C192.323 56.7403 191.163 55.933 189.886 55.3564C188.493 54.7798 187.216 54.5491 185.824 54.5491C184.431 54.5491 182.806 54.7798 181.761 55.3564C180.717 55.933 179.324 56.7403 178.279 57.7782C177.235 58.8162 176.422 59.9694 175.842 61.238C175.261 62.6219 175.029 63.8905 175.029 65.2744C175.029 66.6584 175.261 68.2729 175.842 69.3109C176.422 70.6948 177.235 71.7327 178.279 72.7706C179.324 73.8086 180.484 74.6159 181.761 75.1925C183.154 75.7691 184.431 75.9998 185.824 75.9998C187.216 75.9998 188.841 75.7691 189.886 75.1925C191.279 74.6159 192.323 73.8086 193.368 72.7706C194.412 71.7327 195.225 70.5795 195.805 69.3109C196.386 67.9269 196.618 66.6584 196.618 65.2744C196.618 63.8905 196.27 62.6219 195.805 61.238ZM192.555 67.927C192.323 68.7342 191.743 69.7722 190.93 70.3488C190.35 71.1561 189.306 71.7327 188.493 71.9634C187.681 72.194 186.636 72.54 185.475 72.54C184.431 72.54 183.618 72.3093 182.458 71.9634C181.645 71.7327 180.833 71.1561 180.02 70.3488C179.44 69.5415 178.976 68.7342 178.395 67.927C178.163 67.1197 177.815 66.0817 177.815 64.9285C177.815 63.8905 178.047 63.0832 178.395 61.93C178.627 61.1227 179.208 60.0848 180.02 59.5081C180.6 58.7008 181.645 58.1242 182.458 57.8936C183.27 57.6629 184.315 57.3169 185.475 57.3169C186.52 57.3169 187.332 57.5476 188.493 57.8936C189.538 58.1242 190.118 58.7008 190.93 59.5081C191.511 60.3154 191.975 61.1227 192.555 61.93C192.788 62.7373 193.136 63.7752 193.136 64.9285C193.02 66.3124 192.788 67.1197 192.555 67.927ZM159.244 66.3124L165.976 75.1925H169.806L162.726 66.0817C164.351 65.8511 165.396 65.2744 166.208 64.4672C167.021 63.6599 167.253 62.276 167.253 60.6614C167.253 59.8541 167.021 58.8162 166.672 58.2395C166.44 57.4323 165.86 56.8556 165.28 56.3943C164.699 55.8177 164.235 55.8177 163.423 55.587C162.61 55.3564 161.565 55.3564 160.405 55.3564H155.762V75.1925H158.78L159.244 66.3124ZM159.012 58.0089H159.592C161.217 58.0089 162.262 58.2395 163.074 58.5855C163.887 58.8162 163.887 59.6235 163.887 61.0074C163.887 62.0453 163.655 62.8526 163.074 63.1986C162.494 63.7752 161.217 63.7752 159.592 63.7752H159.012V58.0089ZM139.281 67.6963H144.155V67.927C144.155 69.5415 143.575 70.5795 142.53 71.3867C141.486 72.194 140.093 72.7706 138.236 72.7706C136.031 72.7706 134.174 72.194 132.781 70.5795C131.388 69.1955 130.576 67.3503 130.576 64.9285C130.576 62.7373 131.156 60.892 132.781 59.5081C134.174 58.1242 136.031 57.3169 138.236 57.3169C139.281 57.3169 140.093 57.5476 141.254 57.8936C142.066 58.4702 142.879 58.9315 143.691 59.7388L146.129 57.8936C145.084 56.8556 143.923 55.7024 142.647 55.2411C141.602 54.6644 139.977 54.4338 138.352 54.4338C136.727 54.4338 135.334 54.6644 134.058 55.2411C132.665 55.8177 131.62 56.279 130.576 57.4323C129.531 58.4702 128.718 59.6235 128.138 60.892C127.558 62.276 127.326 63.5446 127.326 64.9285C127.326 66.543 127.558 67.9269 128.138 68.9649C128.718 70.3488 129.183 71.3867 130.343 72.4247C131.504 73.4626 132.549 74.2699 133.825 74.6159C135.218 75.1925 136.495 75.4232 138.12 75.4232C141.138 75.4232 143.575 74.6159 145.2 73.0013C146.825 71.3867 147.637 69.1955 147.637 66.543C147.637 66.3124 147.637 65.9664 147.637 65.1591C147.637 64.9285 147.637 64.5825 147.637 64.5825H139.513L139.281 67.6963ZM106.782 75.1925H107.594C110.032 75.1925 111.657 75.1925 113.049 74.6159C114.094 74.3852 115.255 73.8086 116.067 73.232C117.112 72.4247 118.272 71.0408 118.737 69.7722C119.317 68.3883 119.549 66.7737 119.549 64.9285C119.549 63.0832 119.317 61.4687 118.737 60.0848C118.156 58.7008 117.112 57.6629 116.067 56.625C115.255 56.0483 114.21 55.587 113.049 55.2411C112.005 55.0104 109.8 54.6644 107.13 54.6644H102.835V74.9618L106.782 75.1925ZM105.505 58.0089H106.55H107.594C109.219 58.0089 110.612 58.0089 111.424 58.2395C112.237 58.4702 112.817 58.8162 113.63 59.2775C114.442 59.8541 115.023 60.6614 115.487 61.6993C115.719 62.7373 116.067 63.8905 116.067 65.1591C116.067 66.4277 115.835 67.581 115.487 68.6189C115.255 69.6568 114.442 70.4641 113.63 71.0408C113.049 71.6174 112.585 71.848 111.773 72.0787C110.96 72.3093 109.916 72.3093 108.291 72.3093H105.621L105.505 58.0089ZM94.1305 75.1925V72.194H86.5861V55.1257H83.3362V75.3078H94.1305V75.1925ZM65.1137 66.3124L71.8456 75.1925H75.6758L68.5957 66.0817C70.2206 65.8511 71.2652 65.2744 72.0777 64.4672C72.8902 63.6599 73.1223 62.276 73.1223 60.6614C73.1223 59.8541 72.8902 58.8162 72.542 58.2395C72.3098 57.4323 71.7295 56.8556 71.1492 56.3943C70.5688 55.8177 70.1046 55.8177 69.2921 55.587C68.7118 55.3564 67.5511 55.3564 66.5065 55.3564H61.6317V75.1925H64.8815V66.3124H65.1137ZM64.8815 58.0089H65.4619C67.0868 58.0089 68.1314 58.2395 68.9439 58.5855C69.7564 58.8162 69.7564 59.6235 69.7564 61.0074C69.7564 62.0453 69.5242 62.8526 68.9439 63.1986C68.3636 63.7752 67.0868 63.7752 65.4619 63.7752H64.8815V58.0089ZM52.4624 61.238C51.882 59.8541 51.0695 58.8162 50.0249 57.7782C48.9803 56.7403 47.8197 55.933 46.5429 55.3564C45.1501 54.7798 43.8734 54.5491 42.4806 54.5491C41.0878 54.5491 39.4628 54.7798 38.4182 55.3564C37.0254 55.933 35.9808 56.7403 34.9362 57.7782C33.8916 58.8162 33.0791 59.9694 32.4988 61.238C31.9185 62.6219 31.6863 63.8905 31.6863 65.2744C31.6863 66.6584 31.9185 68.2729 32.4988 69.3109C33.0791 70.6948 33.8916 71.7327 34.9362 72.7706C35.9808 73.8086 37.1415 74.6159 38.4182 75.1925C39.811 75.7691 41.0878 75.9998 42.4806 75.9998C43.8734 75.9998 45.4983 75.7691 46.5429 75.1925C47.9357 74.6159 48.9803 73.8086 50.0249 72.7706C51.0695 71.7327 51.882 70.5795 52.4624 69.3109C53.0427 67.9269 53.2748 66.6584 53.2748 65.2744C53.0427 63.8905 52.6945 62.6219 52.4624 61.238ZM49.2125 67.927C48.9803 68.7342 48.4 69.7722 47.5875 70.3488C47.0072 71.1561 45.9626 71.7327 45.1501 71.9634C44.3377 72.194 43.293 72.54 42.1324 72.54C40.9717 72.54 40.2753 72.3093 39.1146 71.9634C38.3022 71.7327 37.4897 71.1561 36.6772 70.3488C36.0969 69.5415 35.6326 68.7342 35.0523 67.927C34.8201 67.1197 34.4719 66.0817 34.4719 64.9285C34.4719 63.8905 34.7041 63.0832 35.0523 61.93C35.2844 61.1227 35.8647 60.0848 36.6772 59.5081C37.2576 58.7008 38.3022 58.1242 39.1146 57.8936C39.9271 57.6629 40.9717 57.3169 42.1324 57.3169C43.177 57.3169 43.9895 57.5476 45.1501 57.8936C45.9626 58.1242 46.7751 58.7008 47.5875 59.5081C48.1679 60.3154 48.6321 61.1227 49.2125 61.93C49.4446 62.7373 49.7928 63.7752 49.7928 64.9285C49.7928 66.3124 49.4446 67.1197 49.2125 67.927ZM7.89257 75.9998L12.5353 64.4672C12.7674 63.8905 12.7674 63.6599 13.1156 63.0832C13.1156 62.5066 13.3477 62.0453 13.6959 61.4687C13.6959 62.0453 13.9281 62.276 14.2763 62.8526C14.6245 63.4292 14.5084 63.8905 14.8566 64.4672L19.1511 75.9998L27.0436 55.0104H23.5616L19.7314 65.2744C19.4993 66.0817 19.1511 66.889 19.1511 67.1197C19.1511 67.6963 18.9189 68.1576 18.9189 68.5036C18.9189 67.927 18.6868 67.4656 18.3386 66.889C18.1065 66.3124 18.1065 65.8511 17.7583 65.2744L13.4638 54.2031L9.40144 64.9285C9.40144 64.9285 9.40144 64.9285 9.40144 65.1591C9.16931 66.1971 8.8211 67.3503 8.35683 68.3883C8.35683 67.8116 8.1247 67.581 7.7765 67.0043C7.54436 66.4277 7.54436 65.9664 7.19616 65.1591L3.71415 54.8951H0L7.89257 75.9998Z" fill="#606060"/>
</g>
<defs>
<clipPath id="clip0_60_66">
<rect width="242" height="76" fill="white"/>
</clipPath>
</defs>
</svg>
