<svg width="256" height="162" viewBox="0 0 256 162" fill="none" xmlns="http://www.w3.org/2000/svg">
<path d="M94.7273 151.455C88.697 151.455 83.3636 149.925 78.7273 146.864C74.1212 143.803 70.5152 139.576 67.9091 134.182C65.303 128.758 64 122.5 64 115.409C64 108.258 65.303 101.97 67.9091 96.5457C70.5152 91.0912 74.1212 86.8488 78.7273 83.8184C83.3636 80.7578 88.697 79.2275 94.7273 79.2275C100.758 79.2275 106.076 80.7578 110.682 83.8184C115.288 86.8791 118.894 91.1215 121.5 96.5457C124.136 101.97 125.455 108.258 125.455 115.409C125.455 122.5 124.152 128.758 121.545 134.182C118.939 139.576 115.318 143.803 110.682 146.864C106.076 149.925 100.758 151.455 94.7273 151.455ZM94.7273 144.046C99.5758 144.046 103.682 142.743 107.045 140.137C110.409 137.531 112.955 134.061 114.682 129.728C116.439 125.394 117.318 120.621 117.318 115.409C117.318 110.197 116.439 105.409 114.682 101.046C112.955 96.6821 110.409 93.1821 107.045 90.5457C103.682 87.9094 99.5758 86.5912 94.7273 86.5912C89.9091 86.5912 85.803 87.9094 82.4091 90.5457C79.0455 93.1821 76.4848 96.6821 74.7273 101.046C73 105.409 72.1364 110.197 72.1364 115.409C72.1364 120.621 73 125.394 74.7273 129.728C76.4848 134.061 79.0455 137.531 82.4091 140.137C85.7727 142.743 89.8788 144.046 94.7273 144.046Z" fill="white"/>
<path d="M146.187 106.364V150H138.096V80.1821H145.96V91.1366H146.687C148.323 87.5609 150.869 84.6972 154.323 82.5457C157.808 80.3639 162.111 79.273 167.232 79.273C171.929 79.273 176.05 80.2578 179.596 82.2275C183.172 84.1669 185.944 87.0306 187.914 90.8184C189.914 94.6063 190.914 99.2578 190.914 104.773V150H182.823V105.273C182.823 99.5457 181.217 95.0154 178.005 91.6821C174.823 88.3488 170.55 86.6821 165.187 86.6821C161.52 86.6821 158.263 87.47 155.414 89.0457C152.566 90.6215 150.308 92.8942 148.641 95.8639C147.005 98.8033 146.187 102.303 146.187 106.364Z" fill="white"/>
<path d="M2.00002 0C0.895454 0 2.28882e-05 0.895431 2.28882e-05 2V159.455C2.28882e-05 160.559 0.895454 161.455 2.00002 161.455H32.1357C33.2402 161.455 34.1357 160.559 34.1357 159.455V33.136C34.1357 32.7302 34.4646 32.4013 34.8704 32.4013C35.0085 32.4013 35.1437 32.4402 35.2607 32.5135L68.9932 53.6592C70.3251 54.4942 72.0554 53.5367 72.0554 51.9646V26.407C72.0554 25.7216 71.7044 25.0839 71.1253 24.7172L32.5759 0.310211C32.2559 0.107577 31.8849 0 31.5061 0H2.00002Z" fill="white"/>
<path d="M253.055 0C254.16 0 255.055 0.895431 255.055 2V159.455C255.055 160.559 254.16 161.455 253.055 161.455H222.92C221.815 161.455 220.92 160.559 220.92 159.455V33.136C220.92 32.7302 220.591 32.4013 220.185 32.4013C220.047 32.4013 219.912 32.4402 219.795 32.5135L186.062 53.6592C184.73 54.4942 183 53.5367 183 51.9646V26.407C183 25.7216 183.351 25.0839 183.93 24.7172L222.48 0.310211C222.8 0.107577 223.171 0 223.549 0H253.055Z" fill="white"/>
</svg>
